<svg width="205" height="47" viewBox="0 0 205 47" fill="none" xmlns="http://www.w3.org/2000/svg">
<path d="M23 23.5C23 36.4787 12.7025 47 0 47C0 47 5.6003e-06 36.4787 5.6003e-06 23.5C5.6003e-06 10.5213 0 0 0 0C12.7025 0 23 10.5213 23 23.5Z" fill="black"/>
<path d="M40.6803 38H51.0412C58.922 38 63.7625 32.9195 63.7625 23.7186C63.7625 14.5178 58.922 9.39728 51.0412 9.39728H40.6803V38ZM44.2806 12.5976H51.0412C58.3219 12.5976 60.1621 18.1181 60.1621 23.7186C60.1621 29.3192 58.3219 34.7997 51.0412 34.7997H44.2806V12.5976ZM76.2274 35.7598C71.787 35.7598 69.5868 32.3195 69.5868 28.6391H85.7083C85.7083 21.3984 82.588 17.038 76.1874 17.038C70.2268 17.038 66.3864 20.9984 66.3864 27.799C66.3864 34.1996 70.1468 38.5601 76.3474 38.5601C81.4279 38.5601 84.3482 35.5198 85.3883 31.7194H82.188C81.8279 33.1195 80.3078 35.7598 76.2274 35.7598ZM76.1874 19.8383C80.0277 19.8383 82.508 22.5585 82.508 25.8388H69.5868C69.5868 22.5585 72.347 19.8383 76.1874 19.8383ZM97.1575 25.8788C94.3172 25.1988 91.557 24.9988 91.557 22.5985C91.557 20.9984 93.1171 19.8383 95.9974 19.8383C99.8378 19.8383 100.598 21.8785 100.918 23.4386H104.118C103.798 19.9183 101.078 17.038 95.9974 17.038C91.1969 17.038 88.3567 19.6383 88.3567 22.8386C88.3567 27.639 92.9971 27.999 96.1174 28.7591C99.0377 29.4792 101.718 29.6392 101.718 32.5995C101.718 33.9596 100.358 35.7598 96.8775 35.7598C91.757 35.7598 90.9569 33.4796 90.7569 31.1994H87.5566C87.7566 35.5998 90.6369 38.5601 96.8775 38.5601C101.518 38.5601 104.918 36.1198 104.918 32.3995C104.918 27.359 100.798 26.7589 97.1575 25.8788ZM110.019 13.6377C110.939 13.6377 112.02 12.9576 112.02 11.7175C112.02 10.4774 110.939 9.79732 110.019 9.79732C109.139 9.79732 108.019 10.4774 108.019 11.7175C108.019 12.9576 109.139 13.6377 110.019 13.6377ZM108.419 17.5981V38H111.619V17.5981H108.419ZM130.94 17.5981V20.1183H130.86C129.66 18.5582 127.739 17.038 124.379 17.038C119.339 17.038 115.258 20.2783 115.258 26.999C115.258 33.7196 119.339 36.9599 124.379 36.9599C127.739 36.9599 129.66 35.5198 130.86 33.7596H130.94V36.8399C130.94 40.6403 128.74 42.2804 124.939 42.2804C121.139 42.2804 119.459 40.7203 119.059 38.6401H115.858C116.178 42.1204 119.499 45.0807 125.099 45.0807C130.7 45.0807 134.14 42.3204 134.14 36.8799V17.5981H130.94ZM124.779 34.1596C120.579 34.1596 118.459 30.9993 118.459 26.999C118.459 22.9986 120.579 19.8383 124.779 19.8383C128.58 19.8383 130.94 22.1985 130.94 26.999C130.94 31.7994 128.58 34.1596 124.779 34.1596ZM148.531 17.038C145.05 17.038 142.89 18.5982 141.81 20.0383H141.73V17.5981H138.53V38H141.73V25.2788C141.73 22.1185 144.13 19.8383 147.731 19.8383C150.931 19.8383 152.171 21.9185 152.171 24.5587V38H155.371V23.7586C155.371 19.0782 152.251 17.038 148.531 17.038ZM160.145 38H163.745V26.4389H171.946C179.187 26.4389 176.466 36.7999 177.706 38H181.587V37.76C180.107 37.2799 182.427 26.0389 176.066 24.7987V24.7187C179.227 23.9187 181.187 21.6384 181.187 17.5181C181.187 12.4376 177.386 9.39728 171.746 9.39728H160.145V38ZM163.745 12.5976H170.906C173.866 12.5976 177.586 12.9576 177.586 17.9181C177.586 22.8786 173.866 23.2386 170.906 23.2386H163.745V12.5976ZM193.34 28.1191C198.661 28.1191 202.861 23.9987 202.861 18.4381C202.861 12.8776 198.661 8.75722 193.34 8.75722C188.02 8.75722 183.819 12.8776 183.819 18.4381C183.819 23.9987 188.02 28.1191 193.34 28.1191ZM193.34 26.5189C188.94 26.5189 185.42 23.1186 185.42 18.4381C185.42 13.7977 188.94 10.3574 193.34 10.3574C197.741 10.3574 201.261 13.7977 201.261 18.4381C201.261 23.1186 197.741 26.5189 193.34 26.5189ZM189.82 23.4786H191.5V19.3182H193.26C196.261 19.3182 195.261 23.0386 195.701 23.4786H197.501V23.3986C196.981 23.2386 197.821 19.1982 195.541 18.7582V18.7182C196.661 18.4381 197.381 17.5981 197.381 16.1179C197.381 14.3177 196.021 13.1976 193.98 13.1976H189.82V23.4786ZM191.5 14.7578H193.26C194.34 14.7578 195.661 14.6778 195.661 16.2779C195.661 17.8381 194.34 17.7981 193.26 17.7981H191.5V14.7578Z" fill="black"/>
</svg>
