<svg xmlns="http://www.w3.org/2000/svg" xmlns:xlink="http://www.w3.org/1999/xlink" width="38" height="38" viewBox="0 0 38 38">
  <defs>
    <clipPath id="clip-path">
      <rect id="Rectangle_835" data-name="Rectangle 835" width="38" height="38" fill="#fff"/>
    </clipPath>
  </defs>
  <g id="image-gallery_1" data-name="image-gallery 1" clip-path="url(#clip-path)">
    <path id="Tracé_1439" data-name="Tracé 1439" d="M27.634,38a3.156,3.156,0,0,1-.807-.1L2.343,31.339A3.2,3.2,0,0,1,.1,27.46L3.193,15.946a.792.792,0,1,1,1.529.408L1.635,27.865a1.607,1.607,0,0,0,1.124,1.946l24.474,6.553A1.576,1.576,0,0,0,29.16,35.25L30.4,30.668a.792.792,0,1,1,1.529.412l-1.235,4.576A3.162,3.162,0,0,1,27.634,38Z" fill="#bba686"/>
    <path id="Tracé_1440" data-name="Tracé 1440" d="M34.833,28.5H9.5a3.17,3.17,0,0,1-3.167-3.167v-19A3.17,3.17,0,0,1,9.5,3.167H34.833A3.17,3.17,0,0,1,38,6.333v19A3.17,3.17,0,0,1,34.833,28.5ZM9.5,4.75A1.586,1.586,0,0,0,7.916,6.333v19A1.586,1.586,0,0,0,9.5,26.917H34.833a1.586,1.586,0,0,0,1.583-1.583v-19A1.586,1.586,0,0,0,34.833,4.75Z" fill="#bba686"/>
    <path id="Tracé_1441" data-name="Tracé 1441" d="M14.25,14.25a3.167,3.167,0,1,1,3.167-3.167A3.17,3.17,0,0,1,14.25,14.25Zm0-4.75a1.583,1.583,0,1,0,1.583,1.583A1.586,1.586,0,0,0,14.25,9.5Z" fill="#bba686"/>
    <path id="Tracé_1442" data-name="Tracé 1442" d="M7.236,26.806a.791.791,0,0,1-.561-1.351l7.478-7.478a2.434,2.434,0,0,1,3.358,0L19.738,20.2,25.9,12.809a2.379,2.379,0,0,1,1.808-.855h.017a2.374,2.374,0,0,1,1.8.828l8.281,9.661a.792.792,0,0,1-1.2,1.031l-8.281-9.661a.783.783,0,0,0-.6-.276.84.84,0,0,0-.608.285L20.4,21.883a.789.789,0,0,1-.573.283.762.762,0,0,1-.6-.231L16.392,19.1a.813.813,0,0,0-1.119,0L7.795,26.575A.789.789,0,0,1,7.236,26.806Z" fill="#bba686"/>
  </g>
</svg>
