<svg width="1010" height="475" viewBox="0 0 1010 475" fill="none" xmlns="http://www.w3.org/2000/svg">
<rect x="3.5" y="3.5" width="1003" height="468" rx="3.5" fill="#F9F7F0" stroke="white" stroke-width="7"/>
<path d="M63.385 96.613L62.66 96.7H48.073V97.077L50.103 97.396V116.449L47.87 116.826V117H56.396V116.826L53.003 116.449V107.662H58.832L60.079 110.446H60.253V104.298H60.079L58.832 107.111H53.003V97.251H60.514C61.558 98.121 63.24 101.137 63.675 102.036H63.849L63.385 96.613ZM75.1425 113.665C74.4175 114.477 73.0545 115.521 71.4015 115.521C67.9795 115.521 66.1235 112.824 66.0655 109.431L75.3165 109.373C75.2585 104.965 74.0405 102.906 69.9515 103.022C66.1815 103.834 63.7165 106.647 63.7165 110.417C63.7165 114.39 65.8915 117.261 69.4875 117.261C70.0095 117.261 70.4445 117.232 70.9665 117.087C72.7065 116.217 74.2145 115.202 75.4615 113.955L75.1425 113.665ZM69.2845 103.834C71.1405 103.776 72.6485 105.4 72.6485 108.445C72.6485 108.561 72.5905 108.735 72.5325 108.88L66.0655 109.17C66.0655 105.922 66.6165 103.921 69.2845 103.834ZM77.0546 110.562C77.0546 115.144 79.2296 117.377 82.2456 117.377C83.4636 116.884 85.2906 114.97 86.5956 113.375H86.7406L86.6826 117H91.0036V116.855L89.0606 116.536L89.0896 104.356C88.3646 103.718 86.7986 103.022 84.0146 103.022C82.0716 103.631 77.0546 106.038 77.0546 110.562ZM79.5196 109.518C79.5196 105.893 80.6216 104.24 83.3476 104.24C84.5946 104.24 85.6096 104.907 86.4796 105.98L86.4216 113.201C85.3776 114.39 84.1596 115.289 83.1156 115.289C81.4336 115.289 79.5196 113.085 79.5196 109.518ZM91.2397 104.211L93.1827 104.269H93.2697L93.3857 113.926C93.5887 116.043 94.6037 117.203 96.8367 117.377C98.2867 116.478 99.0407 115.898 100.549 114.68L100.375 114.506C98.9827 115.463 98.4027 115.695 97.4747 115.695C96.6337 115.666 95.8797 114.854 95.9087 113.346L95.8507 104.327L99.2727 104.414L100.375 104.269V103.428H95.7057L95.8217 99.774L95.4737 99.745L93.5307 102.964L91.2397 103.921V104.211ZM100.644 104.008L102.703 104.182V112.099C102.703 115.405 103.921 117.174 107.227 117.348C107.778 117.319 110.446 115.463 111.722 113.868H111.838L111.577 116.942L111.925 117H116.043V116.826L114.071 116.333V103.37H109.489V103.515L111.49 103.834V113.665C110.33 115.057 108.358 115.347 107.633 115.347C106.357 115.347 105.284 114.564 105.284 111.577V103.37L100.644 103.863V104.008ZM116.503 117H123.057V116.855L121.027 116.536V106.502C122.158 105.11 123.202 105.255 123.927 105.516C124.362 105.69 124.797 105.922 125.261 106.444L127.001 104.298C126.479 103.776 125.609 103.225 124.333 103.167C123.782 103.341 122.042 104.733 120.795 106.299H120.679L120.94 103.428L120.592 103.37H117.054V103.544L118.446 103.892V116.536L116.503 116.855V117ZM137.929 113.665C137.204 114.477 135.841 115.521 134.188 115.521C130.766 115.521 128.91 112.824 128.852 109.431L138.103 109.373C138.045 104.965 136.827 102.906 132.738 103.022C128.968 103.834 126.503 106.647 126.503 110.417C126.503 114.39 128.678 117.261 132.274 117.261C132.796 117.261 133.231 117.232 133.753 117.087C135.493 116.217 137.001 115.202 138.248 113.955L137.929 113.665ZM132.071 103.834C133.927 103.776 135.435 105.4 135.435 108.445C135.435 108.561 135.377 108.735 135.319 108.88L128.852 109.17C128.852 105.922 129.403 103.921 132.071 103.834ZM139.514 115.637C140.007 116.13 142.298 117.406 143.835 117.406C146.909 116.884 149.026 115.55 149.026 112.824C149.084 109.199 141.341 108.329 141.341 105.69C141.341 104.53 141.95 103.718 143.371 103.631C144.763 103.66 145.72 104.182 146.532 104.994L148.301 107.053H148.504L147.895 104.066C146.532 103.544 144.966 103.051 144.183 103.022C141.341 103.544 139.514 105.284 139.514 107.285C139.514 110.968 146.88 111.345 146.88 114.071C146.88 116.13 145.807 116.855 144.56 116.855C143.458 116.826 142.008 116.014 141.138 115.231L139.775 112.244L139.572 112.273L139.514 115.637Z" fill="black"/>
<path d="M662.418 81.328C660.738 80.912 659.506 80.704 659.506 79.184C659.506 78.24 660.37 77.616 661.986 77.616C663.794 77.616 664.658 78.416 664.866 79.952H666.306C666.114 77.584 664.418 76.336 661.986 76.336C659.458 76.336 658.066 77.536 658.066 79.344C658.066 81.568 660.114 82.16 661.826 82.56C664.386 83.152 665.234 83.44 665.234 85.008C665.234 86.032 664.53 86.944 662.546 86.944C660.146 86.944 659.186 85.728 659.026 84.16H657.586C657.746 86.784 659.842 88.224 662.546 88.224C665.442 88.224 666.674 86.672 666.674 85.008C666.674 82.4 664.994 81.968 662.418 81.328ZM671.682 80.96V79.84H670.082V77.12H668.802V79.84H667.602V80.96H668.802V86C668.802 87.664 669.634 88.096 670.722 88.096C671.058 88.096 671.394 88.064 671.682 88V86.88C670.594 86.96 670.082 86.8 670.082 85.872V80.96H671.682ZM678.013 81.92C678.013 82.736 677.389 82.912 676.013 83.168C673.901 83.568 672.525 84.048 672.525 85.904C672.525 87.28 673.565 88.224 675.213 88.224C676.557 88.224 677.469 87.744 677.981 86.976H678.013C678.237 87.872 678.701 88.08 679.469 88.08C679.709 88.08 679.885 88.064 680.221 87.952V87.056C679.405 87.152 679.293 86.8 679.293 86.16V82.192C679.293 80.224 677.901 79.616 676.349 79.616C673.981 79.616 673.005 80.8 672.925 82.368H674.205C674.285 81.184 674.797 80.736 676.349 80.736C677.661 80.736 678.013 81.28 678.013 81.92ZM675.341 87.104C674.285 87.104 673.805 86.64 673.805 85.84C673.805 84.864 674.541 84.464 676.125 84.128C676.989 83.952 677.773 83.728 678.013 83.488V84.848C678.013 86.416 676.861 87.104 675.341 87.104ZM685.177 79.616C683.785 79.616 682.921 80.24 682.489 80.816H682.457V79.84H681.177V88H682.457V82.912C682.457 81.648 683.417 80.736 684.857 80.736C686.137 80.736 686.633 81.568 686.633 82.624V88H687.913V82.304C687.913 80.432 686.665 79.616 685.177 79.616ZM695.438 76.56V80.896H695.406C694.926 80.192 694.158 79.616 692.846 79.616C690.798 79.616 689.166 81.232 689.166 83.92C689.166 86.608 690.798 88.224 692.846 88.224C694.158 88.224 694.926 87.616 695.406 86.992H695.438V88H696.718V76.56H695.438ZM692.974 87.104C691.294 87.104 690.446 85.52 690.446 83.92C690.446 82.32 691.294 80.736 692.974 80.736C694.494 80.736 695.438 82 695.438 83.92C695.438 85.84 694.494 87.104 692.974 87.104ZM703.466 81.92C703.466 82.736 702.842 82.912 701.466 83.168C699.354 83.568 697.978 84.048 697.978 85.904C697.978 87.28 699.018 88.224 700.666 88.224C702.01 88.224 702.922 87.744 703.434 86.976H703.466C703.69 87.872 704.154 88.08 704.922 88.08C705.162 88.08 705.338 88.064 705.674 87.952V87.056C704.858 87.152 704.746 86.8 704.746 86.16V82.192C704.746 80.224 703.354 79.616 701.802 79.616C699.434 79.616 698.458 80.8 698.378 82.368H699.658C699.738 81.184 700.25 80.736 701.802 80.736C703.114 80.736 703.466 81.28 703.466 81.92ZM700.794 87.104C699.738 87.104 699.258 86.64 699.258 85.84C699.258 84.864 699.994 84.464 701.578 84.128C702.442 83.952 703.226 83.728 703.466 83.488V84.848C703.466 86.416 702.314 87.104 700.794 87.104ZM710.198 79.616C709.03 79.616 708.374 80.384 707.942 81.456H707.91V79.84H706.63V88H707.91V83.648C707.91 81.904 709.142 80.656 710.918 80.944H710.95V79.664C710.726 79.632 710.502 79.616 710.198 79.616ZM717.61 76.56V80.896H717.578C717.098 80.192 716.33 79.616 715.018 79.616C712.97 79.616 711.338 81.232 711.338 83.92C711.338 86.608 712.97 88.224 715.018 88.224C716.33 88.224 717.098 87.616 717.578 86.992H717.61V88H718.89V76.56H717.61ZM715.146 87.104C713.466 87.104 712.618 85.52 712.618 83.92C712.618 82.32 713.466 80.736 715.146 80.736C716.666 80.736 717.61 82 717.61 83.92C717.61 85.84 716.666 87.104 715.146 87.104Z" fill="black"/>
<path d="M833.721 79.44C833.721 77.664 832.313 76.56 829.977 76.56H825.369V88H830.297C832.665 88 834.169 86.784 834.169 84.672C834.169 82.96 833.145 82.048 831.945 81.84V81.808C832.889 81.488 833.721 80.848 833.721 79.44ZM826.809 81.344V77.84H830.361C831.673 77.84 832.281 78.56 832.281 79.6C832.281 80.64 831.833 81.344 830.201 81.344H826.809ZM826.809 82.624H830.761C831.961 82.624 832.729 83.44 832.729 84.672C832.729 85.744 832.281 86.72 830.441 86.72H826.809V82.624ZM840.882 79.84V84.928C840.882 86.192 839.922 87.104 838.482 87.104C837.202 87.104 836.706 86.272 836.706 85.216V79.84H835.426V85.536C835.426 87.408 836.674 88.224 838.162 88.224C839.554 88.224 840.418 87.6 840.85 87.024H840.882V88H842.162V79.84H840.882ZM847.239 83.152C846.103 82.88 844.999 82.8 844.999 81.84C844.999 81.2 845.623 80.736 846.775 80.736C848.311 80.736 848.615 81.552 848.743 82.176H850.023C849.895 80.768 848.807 79.616 846.775 79.616C844.855 79.616 843.719 80.656 843.719 81.936C843.719 83.856 845.575 84 846.823 84.304C847.991 84.592 849.063 84.656 849.063 85.84C849.063 86.384 848.519 87.104 847.127 87.104C845.079 87.104 844.759 86.192 844.679 85.28H843.399C843.479 87.04 844.631 88.224 847.127 88.224C848.983 88.224 850.343 87.248 850.343 85.76C850.343 83.744 848.695 83.504 847.239 83.152ZM852.383 78.256C852.751 78.256 853.183 77.984 853.183 77.488C853.183 76.992 852.751 76.72 852.383 76.72C852.031 76.72 851.583 76.992 851.583 77.488C851.583 77.984 852.031 78.256 852.383 78.256ZM851.743 79.84V88H853.023V79.84H851.743ZM858.943 79.616C857.551 79.616 856.687 80.24 856.255 80.816H856.223V79.84H854.943V88H856.223V82.912C856.223 81.648 857.183 80.736 858.623 80.736C859.903 80.736 860.399 81.568 860.399 82.624V88H861.679V82.304C861.679 80.432 860.431 79.616 858.943 79.616ZM866.868 87.104C865.092 87.104 864.212 85.728 864.212 84.256H870.66C870.66 81.36 869.412 79.616 866.852 79.616C864.468 79.616 862.932 81.2 862.932 83.92C862.932 86.48 864.436 88.224 866.916 88.224C868.948 88.224 870.116 87.008 870.532 85.488H869.252C869.108 86.048 868.5 87.104 866.868 87.104ZM866.852 80.736C868.388 80.736 869.38 81.824 869.38 83.136H864.212C864.212 81.824 865.316 80.736 866.852 80.736ZM875.239 83.152C874.103 82.88 872.999 82.8 872.999 81.84C872.999 81.2 873.623 80.736 874.775 80.736C876.311 80.736 876.615 81.552 876.743 82.176H878.023C877.895 80.768 876.807 79.616 874.775 79.616C872.855 79.616 871.719 80.656 871.719 81.936C871.719 83.856 873.575 84 874.823 84.304C875.991 84.592 877.063 84.656 877.063 85.84C877.063 86.384 876.519 87.104 875.127 87.104C873.079 87.104 872.759 86.192 872.679 85.28H871.399C871.479 87.04 872.631 88.224 875.127 88.224C876.983 88.224 878.343 87.248 878.343 85.76C878.343 83.744 876.695 83.504 875.239 83.152ZM882.895 83.152C881.759 82.88 880.655 82.8 880.655 81.84C880.655 81.2 881.279 80.736 882.431 80.736C883.967 80.736 884.271 81.552 884.399 82.176H885.679C885.551 80.768 884.463 79.616 882.431 79.616C880.511 79.616 879.375 80.656 879.375 81.936C879.375 83.856 881.231 84 882.479 84.304C883.647 84.592 884.719 84.656 884.719 85.84C884.719 86.384 884.175 87.104 882.783 87.104C880.735 87.104 880.415 86.192 880.335 85.28H879.055C879.135 87.04 880.287 88.224 882.783 88.224C884.639 88.224 885.999 87.248 885.999 85.76C885.999 83.744 884.351 83.504 882.895 83.152ZM890.868 87.104C889.092 87.104 888.212 85.728 888.212 84.256H894.66C894.66 81.36 893.412 79.616 890.852 79.616C888.468 79.616 886.932 81.2 886.932 83.92C886.932 86.48 888.436 88.224 890.916 88.224C892.948 88.224 894.116 87.008 894.532 85.488H893.252C893.108 86.048 892.5 87.104 890.868 87.104ZM890.852 80.736C892.388 80.736 893.38 81.824 893.38 83.136H888.212C888.212 81.824 889.316 80.736 890.852 80.736ZM899.239 83.152C898.103 82.88 896.999 82.8 896.999 81.84C896.999 81.2 897.623 80.736 898.775 80.736C900.311 80.736 900.615 81.552 900.743 82.176H902.023C901.895 80.768 900.807 79.616 898.775 79.616C896.855 79.616 895.719 80.656 895.719 81.936C895.719 83.856 897.575 84 898.823 84.304C899.991 84.592 901.063 84.656 901.063 85.84C901.063 86.384 900.519 87.104 899.127 87.104C897.079 87.104 896.759 86.192 896.679 85.28H895.399C895.479 87.04 896.631 88.224 899.127 88.224C900.983 88.224 902.343 87.248 902.343 85.76C902.343 83.744 900.695 83.504 899.239 83.152Z" fill="black"/>
<rect x="47" y="150" width="915" height="36" fill="#F4F1E7"/>
<rect x="47" y="258" width="915" height="36" fill="white"/>
<rect x="47" y="222" width="915" height="36" fill="#F4F1E7"/>
<rect x="47" y="330" width="915" height="36" fill="white"/>
<rect x="47" y="186" width="915" height="36" fill="white"/>
<rect x="47" y="294" width="915" height="36" fill="#F4F1E7"/>
<rect x="47" y="366" width="915" height="36" fill="#F4F1E7"/>
<rect x="655.266" y="101.266" width="67.4688" height="22.8438" rx="1.32812" fill="#4A3820" stroke="#4A3820" stroke-width="0.53125"/>
<path d="M675.535 112.231C674.754 112.037 674.182 111.941 674.182 111.234C674.182 110.795 674.583 110.505 675.334 110.505C676.175 110.505 676.576 110.877 676.673 111.591H677.342C677.253 110.49 676.465 109.91 675.334 109.91C674.159 109.91 673.512 110.468 673.512 111.308C673.512 112.342 674.464 112.617 675.26 112.803C676.45 113.078 676.844 113.212 676.844 113.941C676.844 114.417 676.517 114.841 675.595 114.841C674.479 114.841 674.033 114.276 673.958 113.547H673.289C673.363 114.767 674.338 115.436 675.595 115.436C676.941 115.436 677.514 114.715 677.514 113.941C677.514 112.729 676.733 112.528 675.535 112.231ZM679.841 112.06V111.539H679.098V110.275H678.503V111.539H677.945V112.06H678.503V114.402C678.503 115.176 678.889 115.377 679.395 115.377C679.551 115.377 679.707 115.362 679.841 115.332V114.811C679.336 114.849 679.098 114.774 679.098 114.343V112.06H679.841ZM682.784 112.506C682.784 112.885 682.494 112.967 681.854 113.086C680.873 113.272 680.233 113.495 680.233 114.358C680.233 114.997 680.716 115.436 681.483 115.436C682.107 115.436 682.531 115.213 682.769 114.856H682.784C682.888 115.273 683.104 115.369 683.461 115.369C683.572 115.369 683.654 115.362 683.81 115.31V114.893C683.431 114.938 683.379 114.774 683.379 114.477V112.632C683.379 111.717 682.732 111.435 682.011 111.435C680.91 111.435 680.456 111.985 680.419 112.714H681.014C681.051 112.164 681.289 111.955 682.011 111.955C682.62 111.955 682.784 112.208 682.784 112.506ZM681.542 114.916C681.051 114.916 680.828 114.7 680.828 114.328C680.828 113.874 681.17 113.688 681.906 113.532C682.308 113.45 682.673 113.346 682.784 113.235V113.867C682.784 114.596 682.249 114.916 681.542 114.916ZM685.914 111.435C685.371 111.435 685.066 111.792 684.865 112.29H684.85V111.539H684.255V115.332H684.85V113.309C684.85 112.498 685.423 111.918 686.248 112.052H686.263V111.457C686.159 111.442 686.055 111.435 685.914 111.435ZM688.455 112.06V111.539H687.712V110.275H687.117V111.539H686.559V112.06H687.117V114.402C687.117 115.176 687.503 115.377 688.009 115.377C688.165 115.377 688.322 115.362 688.455 115.332V114.811C687.95 114.849 687.712 114.774 687.712 114.343V112.06H688.455ZM690.656 115.332H691.325V110.966H691.34L693.995 115.332H694.813V110.014H694.144V114.395H694.129L691.474 110.014H690.656V115.332ZM697.44 115.436C696.28 115.436 695.58 114.618 695.58 113.435C695.58 112.253 696.28 111.435 697.44 111.435C698.593 111.435 699.292 112.253 699.292 113.435C699.292 114.618 698.593 115.436 697.44 115.436ZM697.44 114.916C698.288 114.916 698.697 114.246 698.697 113.435C698.697 112.625 698.288 111.955 697.44 111.955C696.585 111.955 696.175 112.625 696.175 113.435C696.175 114.246 696.585 114.916 697.44 114.916ZM699.441 111.539L700.653 115.332H701.285L702.126 112.201H702.14L702.996 115.332H703.628L704.84 111.539H704.186L703.323 114.685H703.308L702.453 111.539H701.821L700.973 114.685H700.958L700.095 111.539H699.441Z" fill="white"/>
<rect x="830.266" y="101.266" width="67.4688" height="22.8438" rx="1.32812" fill="#290B09" stroke="#290B09" stroke-width="0.53125"/>
<path d="M850.535 112.231C849.754 112.037 849.182 111.941 849.182 111.234C849.182 110.795 849.583 110.505 850.334 110.505C851.175 110.505 851.576 110.877 851.673 111.591H852.342C852.253 110.49 851.465 109.91 850.334 109.91C849.159 109.91 848.512 110.468 848.512 111.308C848.512 112.342 849.464 112.617 850.26 112.803C851.45 113.078 851.844 113.212 851.844 113.941C851.844 114.417 851.517 114.841 850.595 114.841C849.479 114.841 849.033 114.276 848.958 113.547H848.289C848.363 114.767 849.338 115.436 850.595 115.436C851.941 115.436 852.514 114.715 852.514 113.941C852.514 112.729 851.733 112.528 850.535 112.231ZM854.841 112.06V111.539H854.098V110.275H853.503V111.539H852.945V112.06H853.503V114.402C853.503 115.176 853.889 115.377 854.395 115.377C854.551 115.377 854.707 115.362 854.841 115.332V114.811C854.336 114.849 854.098 114.774 854.098 114.343V112.06H854.841ZM857.784 112.506C857.784 112.885 857.494 112.967 856.854 113.086C855.873 113.272 855.233 113.495 855.233 114.358C855.233 114.997 855.716 115.436 856.483 115.436C857.107 115.436 857.531 115.213 857.769 114.856H857.784C857.888 115.273 858.104 115.369 858.461 115.369C858.572 115.369 858.654 115.362 858.81 115.31V114.893C858.431 114.938 858.379 114.774 858.379 114.477V112.632C858.379 111.717 857.732 111.435 857.011 111.435C855.91 111.435 855.456 111.985 855.419 112.714H856.014C856.051 112.164 856.289 111.955 857.011 111.955C857.62 111.955 857.784 112.208 857.784 112.506ZM856.542 114.916C856.051 114.916 855.828 114.7 855.828 114.328C855.828 113.874 856.17 113.688 856.906 113.532C857.308 113.45 857.673 113.346 857.784 113.235V113.867C857.784 114.596 857.249 114.916 856.542 114.916ZM860.914 111.435C860.371 111.435 860.066 111.792 859.865 112.29H859.85V111.539H859.255V115.332H859.85V113.309C859.85 112.498 860.423 111.918 861.248 112.052H861.263V111.457C861.159 111.442 861.055 111.435 860.914 111.435ZM863.455 112.06V111.539H862.712V110.275H862.117V111.539H861.559V112.06H862.117V114.402C862.117 115.176 862.503 115.377 863.009 115.377C863.165 115.377 863.322 115.362 863.455 115.332V114.811C862.95 114.849 862.712 114.774 862.712 114.343V112.06H863.455ZM865.656 115.332H866.325V110.966H866.34L868.995 115.332H869.813V110.014H869.144V114.395H869.129L866.474 110.014H865.656V115.332ZM872.44 115.436C871.28 115.436 870.58 114.618 870.58 113.435C870.58 112.253 871.28 111.435 872.44 111.435C873.593 111.435 874.292 112.253 874.292 113.435C874.292 114.618 873.593 115.436 872.44 115.436ZM872.44 114.916C873.288 114.916 873.697 114.246 873.697 113.435C873.697 112.625 873.288 111.955 872.44 111.955C871.585 111.955 871.175 112.625 871.175 113.435C871.175 114.246 871.585 114.916 872.44 114.916ZM874.441 111.539L875.653 115.332H876.285L877.126 112.201H877.14L877.996 115.332H878.628L879.84 111.539H879.186L878.323 114.685H878.308L877.453 111.539H876.821L875.973 114.685H875.958L875.095 111.539H874.441Z" fill="white"/>
<path d="M862.473 240.527C862.347 240.401 862.177 240.331 861.999 240.331C861.822 240.331 861.652 240.401 861.526 240.527C861.401 240.652 861.33 240.822 861.33 241C861.33 241.177 861.401 241.348 861.526 241.473L863.526 243.473C863.588 243.535 863.662 243.584 863.744 243.617C863.825 243.65 863.912 243.667 863.999 243.667C864.091 243.664 864.18 243.642 864.263 243.603C864.346 243.564 864.419 243.509 864.479 243.44L869.146 238.107C869.254 237.973 869.306 237.803 869.291 237.631C869.276 237.46 869.196 237.301 869.067 237.188C868.938 237.074 868.771 237.015 868.599 237.022C868.427 237.03 868.265 237.103 868.146 237.227L863.999 242.027L862.473 240.527Z" fill="#4A3820"/>
<path d="M869.999 240.333C869.822 240.333 869.653 240.403 869.528 240.529C869.403 240.654 869.333 240.823 869.333 241C869.333 242.414 868.771 243.771 867.77 244.771C866.77 245.771 865.414 246.333 863.999 246.333C862.946 246.333 861.916 246.02 861.04 245.436C860.164 244.851 859.481 244.02 859.077 243.047C858.673 242.075 858.565 241.004 858.769 239.971C858.972 238.937 859.477 237.987 860.219 237.24C860.713 236.74 861.302 236.343 861.951 236.072C862.6 235.802 863.296 235.664 863.999 235.667C864.426 235.669 864.85 235.718 865.266 235.813C865.353 235.84 865.444 235.849 865.535 235.839C865.625 235.829 865.713 235.801 865.792 235.756C865.871 235.711 865.94 235.65 865.995 235.578C866.05 235.505 866.089 235.422 866.111 235.333C866.132 235.245 866.135 235.153 866.12 235.063C866.104 234.973 866.071 234.888 866.021 234.812C865.971 234.735 865.906 234.67 865.83 234.62C865.754 234.57 865.669 234.536 865.579 234.52C865.061 234.398 864.531 234.335 863.999 234.333C862.682 234.34 861.397 234.737 860.305 235.474C859.213 236.21 858.364 237.254 857.865 238.473C857.365 239.692 857.238 241.031 857.5 242.322C857.761 243.613 858.399 244.798 859.333 245.727C860.57 246.965 862.248 247.663 863.999 247.667C865.767 247.667 867.463 246.964 868.713 245.714C869.964 244.464 870.666 242.768 870.666 241C870.666 240.823 870.596 240.654 870.471 240.529C870.346 240.403 870.176 240.333 869.999 240.333Z" fill="#4A3820"/>
<path d="M687.473 203.527C687.347 203.401 687.177 203.331 686.999 203.331C686.822 203.331 686.652 203.401 686.526 203.527C686.401 203.652 686.33 203.822 686.33 204C686.33 204.177 686.401 204.348 686.526 204.473L688.526 206.473C688.588 206.535 688.662 206.584 688.744 206.617C688.825 206.65 688.912 206.667 688.999 206.667C689.091 206.664 689.18 206.642 689.263 206.603C689.346 206.564 689.419 206.509 689.479 206.44L694.146 201.107C694.254 200.973 694.306 200.803 694.291 200.631C694.276 200.46 694.196 200.301 694.067 200.188C693.938 200.074 693.771 200.015 693.599 200.022C693.427 200.03 693.265 200.103 693.146 200.227L688.999 205.027L687.473 203.527Z" fill="#4A3820"/>
<path d="M694.999 203.333C694.822 203.333 694.653 203.403 694.528 203.529C694.403 203.654 694.333 203.823 694.333 204C694.333 205.414 693.771 206.771 692.77 207.771C691.77 208.771 690.414 209.333 688.999 209.333C687.946 209.333 686.916 209.02 686.04 208.436C685.164 207.851 684.481 207.02 684.077 206.047C683.673 205.075 683.565 204.004 683.769 202.971C683.972 201.937 684.477 200.987 685.219 200.24C685.713 199.74 686.302 199.343 686.951 199.072C687.6 198.802 688.296 198.664 688.999 198.667C689.426 198.669 689.85 198.718 690.266 198.813C690.353 198.84 690.444 198.849 690.535 198.839C690.625 198.829 690.713 198.801 690.792 198.756C690.871 198.711 690.94 198.65 690.995 198.578C691.05 198.505 691.089 198.422 691.111 198.333C691.132 198.245 691.135 198.153 691.12 198.063C691.104 197.973 691.071 197.888 691.021 197.812C690.971 197.735 690.906 197.67 690.83 197.62C690.754 197.57 690.669 197.536 690.579 197.52C690.061 197.398 689.531 197.335 688.999 197.333C687.682 197.34 686.397 197.737 685.305 198.474C684.213 199.21 683.364 200.254 682.865 201.473C682.365 202.692 682.238 204.031 682.5 205.322C682.761 206.613 683.399 207.798 684.333 208.727C685.57 209.965 687.248 210.663 688.999 210.667C690.767 210.667 692.463 209.964 693.713 208.714C694.964 207.464 695.666 205.768 695.666 204C695.666 203.823 695.596 203.654 695.471 203.529C695.346 203.403 695.176 203.333 694.999 203.333Z" fill="#4A3820"/>
<path d="M862.473 203.527C862.347 203.401 862.177 203.331 861.999 203.331C861.822 203.331 861.652 203.401 861.526 203.527C861.401 203.652 861.33 203.822 861.33 204C861.33 204.177 861.401 204.348 861.526 204.473L863.526 206.473C863.588 206.535 863.662 206.584 863.744 206.617C863.825 206.65 863.912 206.667 863.999 206.667C864.091 206.664 864.18 206.642 864.263 206.603C864.346 206.564 864.419 206.509 864.479 206.44L869.146 201.107C869.254 200.973 869.306 200.803 869.291 200.631C869.276 200.46 869.196 200.301 869.067 200.188C868.938 200.074 868.771 200.015 868.599 200.022C868.427 200.03 868.265 200.103 868.146 200.227L863.999 205.027L862.473 203.527Z" fill="#290B09"/>
<path d="M869.999 203.333C869.822 203.333 869.653 203.403 869.528 203.529C869.403 203.654 869.333 203.823 869.333 204C869.333 205.414 868.771 206.771 867.77 207.771C866.77 208.771 865.414 209.333 863.999 209.333C862.946 209.333 861.916 209.02 861.04 208.436C860.164 207.851 859.481 207.02 859.077 206.047C858.673 205.075 858.565 204.004 858.769 202.971C858.972 201.937 859.477 200.987 860.219 200.24C860.713 199.74 861.302 199.343 861.951 199.072C862.6 198.802 863.296 198.664 863.999 198.667C864.426 198.669 864.85 198.718 865.266 198.813C865.353 198.84 865.444 198.849 865.535 198.839C865.625 198.829 865.713 198.801 865.792 198.756C865.871 198.711 865.94 198.65 865.995 198.578C866.05 198.505 866.089 198.422 866.111 198.333C866.132 198.245 866.135 198.153 866.12 198.063C866.104 197.973 866.071 197.888 866.021 197.812C865.971 197.735 865.906 197.67 865.83 197.62C865.754 197.57 865.669 197.536 865.579 197.52C865.061 197.398 864.531 197.335 863.999 197.333C862.682 197.34 861.397 197.737 860.305 198.474C859.213 199.21 858.364 200.254 857.865 201.473C857.365 202.692 857.238 204.031 857.5 205.322C857.761 206.613 858.399 207.798 859.333 208.727C860.57 209.965 862.248 210.663 863.999 210.667C865.767 210.667 867.463 209.964 868.713 208.714C869.964 207.464 870.666 205.768 870.666 204C870.666 203.823 870.596 203.654 870.471 203.529C870.346 203.403 870.176 203.333 869.999 203.333Z" fill="#290B09"/>
<path d="M687.473 276.527C687.347 276.401 687.177 276.331 686.999 276.331C686.822 276.331 686.652 276.401 686.526 276.527C686.401 276.652 686.33 276.822 686.33 277C686.33 277.177 686.401 277.348 686.526 277.473L688.526 279.473C688.588 279.535 688.662 279.584 688.744 279.617C688.825 279.65 688.912 279.667 688.999 279.667C689.091 279.664 689.18 279.642 689.263 279.603C689.346 279.564 689.419 279.509 689.479 279.44L694.146 274.107C694.254 273.973 694.306 273.803 694.291 273.631C694.276 273.46 694.196 273.301 694.067 273.188C693.938 273.074 693.771 273.015 693.599 273.022C693.427 273.03 693.265 273.103 693.146 273.227L688.999 278.027L687.473 276.527Z" fill="#4A3820"/>
<path d="M694.999 276.333C694.822 276.333 694.653 276.403 694.528 276.529C694.403 276.654 694.333 276.823 694.333 277C694.333 278.414 693.771 279.771 692.77 280.771C691.77 281.771 690.414 282.333 688.999 282.333C687.946 282.333 686.916 282.02 686.04 281.436C685.164 280.851 684.481 280.02 684.077 279.047C683.673 278.075 683.565 277.004 683.769 275.971C683.972 274.937 684.477 273.987 685.219 273.24C685.713 272.74 686.302 272.343 686.951 272.072C687.6 271.802 688.296 271.664 688.999 271.667C689.426 271.669 689.85 271.718 690.266 271.813C690.353 271.84 690.444 271.849 690.535 271.839C690.625 271.829 690.713 271.801 690.792 271.756C690.871 271.711 690.94 271.65 690.995 271.578C691.05 271.505 691.089 271.422 691.111 271.333C691.132 271.245 691.135 271.153 691.12 271.063C691.104 270.973 691.071 270.888 691.021 270.812C690.971 270.735 690.906 270.67 690.83 270.62C690.754 270.57 690.669 270.536 690.579 270.52C690.061 270.398 689.531 270.335 688.999 270.333C687.682 270.34 686.397 270.737 685.305 271.474C684.213 272.21 683.364 273.254 682.865 274.473C682.365 275.692 682.238 277.031 682.5 278.322C682.761 279.613 683.399 280.798 684.333 281.727C685.57 282.965 687.248 283.663 688.999 283.667C690.767 283.667 692.463 282.964 693.713 281.714C694.964 280.464 695.666 278.768 695.666 277C695.666 276.823 695.596 276.654 695.471 276.529C695.346 276.403 695.176 276.333 694.999 276.333Z" fill="#4A3820"/>
<path d="M862.473 276.527C862.347 276.401 862.177 276.331 861.999 276.331C861.822 276.331 861.652 276.401 861.526 276.527C861.401 276.652 861.33 276.822 861.33 277C861.33 277.177 861.401 277.348 861.526 277.473L863.526 279.473C863.588 279.535 863.662 279.584 863.744 279.617C863.825 279.65 863.912 279.667 863.999 279.667C864.091 279.664 864.18 279.642 864.263 279.603C864.346 279.564 864.419 279.509 864.479 279.44L869.146 274.107C869.254 273.973 869.306 273.803 869.291 273.631C869.276 273.46 869.196 273.301 869.067 273.188C868.938 273.074 868.771 273.015 868.599 273.022C868.427 273.03 868.265 273.103 868.146 273.227L863.999 278.027L862.473 276.527Z" fill="#290B09"/>
<path d="M869.999 276.333C869.822 276.333 869.653 276.403 869.528 276.529C869.403 276.654 869.333 276.823 869.333 277C869.333 278.414 868.771 279.771 867.77 280.771C866.77 281.771 865.414 282.333 863.999 282.333C862.946 282.333 861.916 282.02 861.04 281.436C860.164 280.851 859.481 280.02 859.077 279.047C858.673 278.075 858.565 277.004 858.769 275.971C858.972 274.937 859.477 273.987 860.219 273.24C860.713 272.74 861.302 272.343 861.951 272.072C862.6 271.802 863.296 271.664 863.999 271.667C864.426 271.669 864.85 271.718 865.266 271.813C865.353 271.84 865.444 271.849 865.535 271.839C865.625 271.829 865.713 271.801 865.792 271.756C865.871 271.711 865.94 271.65 865.995 271.578C866.05 271.505 866.089 271.422 866.111 271.333C866.132 271.245 866.135 271.153 866.12 271.063C866.104 270.973 866.071 270.888 866.021 270.812C865.971 270.735 865.906 270.67 865.83 270.62C865.754 270.57 865.669 270.536 865.579 270.52C865.061 270.398 864.531 270.335 863.999 270.333C862.682 270.34 861.397 270.737 860.305 271.474C859.213 272.21 858.364 273.254 857.865 274.473C857.365 275.692 857.238 277.031 857.5 278.322C857.761 279.613 858.399 280.798 859.333 281.727C860.57 282.965 862.248 283.663 863.999 283.667C865.767 283.667 867.463 282.964 868.713 281.714C869.964 280.464 870.666 278.768 870.666 277C870.666 276.823 870.596 276.654 870.471 276.529C870.346 276.403 870.176 276.333 869.999 276.333Z" fill="#290B09"/>
<path d="M56.804 171H59.912C62.276 171 63.728 169.476 63.728 166.716C63.728 163.956 62.276 162.42 59.912 162.42H56.804V171ZM57.884 163.38H59.912C62.096 163.38 62.648 165.036 62.648 166.716C62.648 168.396 62.096 170.04 59.912 170.04H57.884V163.38ZM67.5151 171.168C65.6431 171.168 64.5151 169.848 64.5151 167.94C64.5151 166.032 65.6431 164.712 67.5151 164.712C69.3751 164.712 70.5031 166.032 70.5031 167.94C70.5031 169.848 69.3751 171.168 67.5151 171.168ZM67.5151 170.328C68.8831 170.328 69.5431 169.248 69.5431 167.94C69.5431 166.632 68.8831 165.552 67.5151 165.552C66.1351 165.552 65.4751 166.632 65.4751 167.94C65.4751 169.248 66.1351 170.328 67.5151 170.328ZM70.7433 164.88L72.6993 171H73.7193L75.0753 165.948H75.0993L76.4793 171H77.4993L79.4553 164.88H78.3993L77.0073 169.956H76.9833L75.6033 164.88H74.5833L73.2153 169.956H73.1913L71.7993 164.88H70.7433ZM83.1678 164.712C82.1238 164.712 81.4758 165.18 81.1518 165.612H81.1278V164.88H80.1678V171H81.1278V167.184C81.1278 166.236 81.8478 165.552 82.9278 165.552C83.8878 165.552 84.2598 166.176 84.2598 166.968V171H85.2198V166.728C85.2198 165.324 84.2838 164.712 83.1678 164.712ZM86.5437 162.42V171H87.5037V162.42H86.5437ZM91.5151 171.168C89.6431 171.168 88.5151 169.848 88.5151 167.94C88.5151 166.032 89.6431 164.712 91.5151 164.712C93.3751 164.712 94.5031 166.032 94.5031 167.94C94.5031 169.848 93.3751 171.168 91.5151 171.168ZM91.5151 170.328C92.8831 170.328 93.5431 169.248 93.5431 167.94C93.5431 166.632 92.8831 165.552 91.5151 165.552C90.1351 165.552 89.4751 166.632 89.4751 167.94C89.4751 169.248 90.1351 170.328 91.5151 170.328ZM99.2165 166.44C99.2165 167.052 98.7485 167.184 97.7165 167.376C96.1325 167.676 95.1005 168.036 95.1005 169.428C95.1005 170.46 95.8805 171.168 97.1165 171.168C98.1245 171.168 98.8085 170.808 99.1925 170.232H99.2165C99.3845 170.904 99.7325 171.06 100.309 171.06C100.489 171.06 100.621 171.048 100.872 170.964V170.292C100.261 170.364 100.177 170.1 100.177 169.62V166.644C100.177 165.168 99.1325 164.712 97.9685 164.712C96.1925 164.712 95.4605 165.6 95.4005 166.776H96.3605C96.4205 165.888 96.8045 165.552 97.9685 165.552C98.9525 165.552 99.2165 165.96 99.2165 166.44ZM97.2125 170.328C96.4205 170.328 96.0605 169.98 96.0605 169.38C96.0605 168.648 96.6125 168.348 97.8005 168.096C98.4485 167.964 99.0365 167.796 99.2165 167.616V168.636C99.2165 169.812 98.3525 170.328 97.2125 170.328ZM105.946 162.42V165.672H105.922C105.562 165.144 104.986 164.712 104.002 164.712C102.466 164.712 101.242 165.924 101.242 167.94C101.242 169.956 102.466 171.168 104.002 171.168C104.986 171.168 105.562 170.712 105.922 170.244H105.946V171H106.906V162.42H105.946ZM104.098 170.328C102.838 170.328 102.202 169.14 102.202 167.94C102.202 166.74 102.838 165.552 104.098 165.552C105.238 165.552 105.946 166.5 105.946 167.94C105.946 169.38 105.238 170.328 104.098 170.328Z" fill="black"/>
<path d="M56.804 244H57.884V240.412H60.212C61.784 240.412 62.996 239.716 62.996 237.916C62.996 236.116 61.784 235.42 60.212 235.42H56.804V244ZM57.884 236.38H60.332C61.4 236.38 61.916 236.872 61.916 237.916C61.916 238.96 61.4 239.452 60.332 239.452H57.884V236.38ZM66.5665 237.712C65.6905 237.712 65.1985 238.288 64.8745 239.092H64.8505V237.88H63.8905V244H64.8505V240.736C64.8505 239.428 65.7745 238.492 67.1065 238.708H67.1305V237.748C66.9625 237.724 66.7945 237.712 66.5665 237.712ZM70.3734 243.328C69.0414 243.328 68.3814 242.296 68.3814 241.192H73.2174C73.2174 239.02 72.2814 237.712 70.3614 237.712C68.5734 237.712 67.4214 238.9 67.4214 240.94C67.4214 242.86 68.5494 244.168 70.4094 244.168C71.9334 244.168 72.8094 243.256 73.1214 242.116H72.1614C72.0534 242.536 71.5974 243.328 70.3734 243.328ZM70.3614 238.552C71.5134 238.552 72.2574 239.368 72.2574 240.352H68.3814C68.3814 239.368 69.2094 238.552 70.3614 238.552ZM77.0718 237.712C76.0878 237.712 75.5118 238.144 75.1518 238.672H75.1278V235.42H74.1678V244H75.1278V243.244H75.1518C75.5118 243.712 76.0878 244.168 77.0718 244.168C78.6078 244.168 79.8318 242.956 79.8318 240.94C79.8318 238.924 78.6078 237.712 77.0718 237.712ZM76.9758 243.328C75.8358 243.328 75.1278 242.38 75.1278 240.94C75.1278 239.5 75.8358 238.552 76.9758 238.552C78.2358 238.552 78.8718 239.74 78.8718 240.94C78.8718 242.14 78.2358 243.328 76.9758 243.328ZM84.8566 237.88V241.696C84.8566 242.644 84.1366 243.328 83.0566 243.328C82.0966 243.328 81.7246 242.704 81.7246 241.912V237.88H80.7646V242.152C80.7646 243.556 81.7006 244.168 82.8166 244.168C83.8606 244.168 84.5086 243.7 84.8326 243.268H84.8566V244H85.8166V237.88H84.8566ZM87.7405 236.692C88.0165 236.692 88.3405 236.488 88.3405 236.116C88.3405 235.744 88.0165 235.54 87.7405 235.54C87.4765 235.54 87.1405 235.744 87.1405 236.116C87.1405 236.488 87.4765 236.692 87.7405 236.692ZM87.2605 237.88V244H88.2205V237.88H87.2605ZM89.5788 235.42V244H90.5388V235.42H89.5788ZM96.2543 235.42V238.672H96.2303C95.8703 238.144 95.2943 237.712 94.3103 237.712C92.7743 237.712 91.5503 238.924 91.5503 240.94C91.5503 242.956 92.7743 244.168 94.3103 244.168C95.2943 244.168 95.8703 243.712 96.2303 243.244H96.2543V244H97.2143V235.42H96.2543ZM94.4063 243.328C93.1463 243.328 92.5103 242.14 92.5103 240.94C92.5103 239.74 93.1463 238.552 94.4063 238.552C95.5463 238.552 96.2543 239.5 96.2543 240.94C96.2543 242.38 95.5463 243.328 94.4063 243.328ZM102.157 239.164V236.38H106.897V235.42H101.077V244H102.157V240.124H105.985V239.164H102.157ZM108.471 236.692C108.747 236.692 109.071 236.488 109.071 236.116C109.071 235.744 108.747 235.54 108.471 235.54C108.207 235.54 107.871 235.744 107.871 236.116C107.871 236.488 108.207 236.692 108.471 236.692ZM107.991 237.88V244H108.951V237.88H107.991ZM114.746 237.88V238.636H114.722C114.362 238.168 113.786 237.712 112.778 237.712C111.266 237.712 110.042 238.684 110.042 240.7C110.042 242.716 111.266 243.688 112.778 243.688C113.786 243.688 114.362 243.256 114.722 242.728H114.746V243.652C114.746 244.792 114.086 245.284 112.946 245.284C111.806 245.284 111.302 244.816 111.182 244.192H110.222C110.318 245.236 111.314 246.124 112.994 246.124C114.674 246.124 115.706 245.296 115.706 243.664V237.88H114.746ZM112.898 242.848C111.638 242.848 111.002 241.9 111.002 240.7C111.002 239.5 111.638 238.552 112.898 238.552C114.038 238.552 114.746 239.26 114.746 240.7C114.746 242.14 114.038 242.848 112.898 242.848ZM123.419 237.712C122.495 237.712 121.859 238.192 121.439 238.768H121.415C121.163 238.084 120.659 237.712 119.783 237.712C118.859 237.712 118.331 238.18 118.007 238.612H117.983V237.88H117.023V244H117.983V240.184C117.983 239.236 118.583 238.552 119.543 238.552C120.503 238.552 120.659 239.176 120.659 239.968V244H121.619V240.184C121.619 239.236 122.219 238.552 123.179 238.552C124.139 238.552 124.295 239.176 124.295 239.968V244H125.255V239.728C125.255 238.444 124.655 237.712 123.419 237.712ZM130.283 239.44C130.283 240.052 129.815 240.184 128.783 240.376C127.199 240.676 126.167 241.036 126.167 242.428C126.167 243.46 126.947 244.168 128.183 244.168C129.191 244.168 129.875 243.808 130.259 243.232H130.283C130.451 243.904 130.799 244.06 131.375 244.06C131.555 244.06 131.687 244.048 131.939 243.964V243.292C131.327 243.364 131.243 243.1 131.243 242.62V239.644C131.243 238.168 130.199 237.712 129.035 237.712C127.259 237.712 126.527 238.6 126.467 239.776H127.427C127.487 238.888 127.871 238.552 129.035 238.552C130.019 238.552 130.283 238.96 130.283 239.44ZM128.279 243.328C127.487 243.328 127.127 242.98 127.127 242.38C127.127 241.648 127.679 241.348 128.867 241.096C129.515 240.964 130.103 240.796 130.283 240.616V241.636C130.283 242.812 129.419 243.328 128.279 243.328ZM141.634 241.144V235.42H140.554V241.144C140.554 242.536 139.834 243.208 138.346 243.208C136.858 243.208 136.138 242.536 136.138 241.144V235.42H135.058V241.144C135.058 242.896 136.054 244.168 138.346 244.168C140.638 244.168 141.634 242.896 141.634 241.144ZM143.125 235.42V244H144.205V235.42H143.125ZM148.234 235.42V244H149.314V241.348L150.85 239.728L153.922 244H155.182L151.57 238.984L154.942 235.42H153.622L149.314 240.016V235.42H148.234ZM155.98 235.42V244H157.06V235.42H155.98ZM160.698 244H161.778V236.38H164.634V235.42H157.842V236.38H160.698V244Z" fill="black"/>
<path d="M57.884 204.164V201.38H62.624V200.42H56.804V209H57.884V205.124H61.712V204.164H57.884ZM64.1975 201.692C64.4735 201.692 64.7975 201.488 64.7975 201.116C64.7975 200.744 64.4735 200.54 64.1975 200.54C63.9335 200.54 63.5975 200.744 63.5975 201.116C63.5975 201.488 63.9335 201.692 64.1975 201.692ZM63.7175 202.88V209H64.6775V202.88H63.7175ZM70.473 202.88V203.636H70.449C70.089 203.168 69.513 202.712 68.505 202.712C66.993 202.712 65.769 203.684 65.769 205.7C65.769 207.716 66.993 208.688 68.505 208.688C69.513 208.688 70.089 208.256 70.449 207.728H70.473V208.652C70.473 209.792 69.813 210.284 68.673 210.284C67.533 210.284 67.029 209.816 66.909 209.192H65.949C66.045 210.236 67.041 211.124 68.721 211.124C70.401 211.124 71.433 210.296 71.433 208.664V202.88H70.473ZM68.625 207.848C67.365 207.848 66.729 206.9 66.729 205.7C66.729 204.5 67.365 203.552 68.625 203.552C69.765 203.552 70.473 204.26 70.473 205.7C70.473 207.14 69.765 207.848 68.625 207.848ZM79.1458 202.712C78.2218 202.712 77.5858 203.192 77.1658 203.768H77.1418C76.8898 203.084 76.3858 202.712 75.5098 202.712C74.5858 202.712 74.0578 203.18 73.7338 203.612H73.7098V202.88H72.7498V209H73.7098V205.184C73.7098 204.236 74.3098 203.552 75.2698 203.552C76.2298 203.552 76.3858 204.176 76.3858 204.968V209H77.3458V205.184C77.3458 204.236 77.9458 203.552 78.9058 203.552C79.8658 203.552 80.0218 204.176 80.0218 204.968V209H80.9818V204.728C80.9818 203.444 80.3818 202.712 79.1458 202.712ZM86.0095 204.44C86.0095 205.052 85.5415 205.184 84.5095 205.376C82.9255 205.676 81.8935 206.036 81.8935 207.428C81.8935 208.46 82.6735 209.168 83.9095 209.168C84.9175 209.168 85.6015 208.808 85.9855 208.232H86.0095C86.1775 208.904 86.5255 209.06 87.1015 209.06C87.2815 209.06 87.4135 209.048 87.6655 208.964V208.292C87.0535 208.364 86.9695 208.1 86.9695 207.62V204.644C86.9695 203.168 85.9255 202.712 84.7615 202.712C82.9855 202.712 82.2535 203.6 82.1935 204.776H83.1535C83.2135 203.888 83.5975 203.552 84.7615 203.552C85.7455 203.552 86.0095 203.96 86.0095 204.44ZM84.0055 208.328C83.2135 208.328 82.8535 207.98 82.8535 207.38C82.8535 206.648 83.4055 206.348 84.5935 206.096C85.2415 205.964 85.8295 205.796 86.0095 205.616V206.636C86.0095 207.812 85.1455 208.328 84.0055 208.328ZM94.4113 204.164V201.38H99.1513V200.42H93.3313V209H94.4113V205.124H98.2393V204.164H94.4113ZM100.725 201.692C101.001 201.692 101.325 201.488 101.325 201.116C101.325 200.744 101.001 200.54 100.725 200.54C100.461 200.54 100.125 200.744 100.125 201.116C100.125 201.488 100.461 201.692 100.725 201.692ZM100.245 202.88V209H101.205V202.88H100.245ZM102.563 200.42V209H103.523V200.42H102.563ZM107.487 208.328C106.155 208.328 105.495 207.296 105.495 206.192H110.331C110.331 204.02 109.395 202.712 107.475 202.712C105.687 202.712 104.535 203.9 104.535 205.94C104.535 207.86 105.663 209.168 107.523 209.168C109.047 209.168 109.923 208.256 110.235 207.116H109.275C109.167 207.536 108.711 208.328 107.487 208.328ZM107.475 203.552C108.627 203.552 109.371 204.368 109.371 205.352H105.495C105.495 204.368 106.323 203.552 107.475 203.552Z" fill="black"/>
<path d="M59.888 275.996C58.628 275.684 57.704 275.528 57.704 274.388C57.704 273.68 58.352 273.212 59.564 273.212C60.92 273.212 61.568 273.812 61.724 274.964H62.804C62.66 273.188 61.388 272.252 59.564 272.252C57.668 272.252 56.624 273.152 56.624 274.508C56.624 276.176 58.16 276.62 59.444 276.92C61.364 277.364 62 277.58 62 278.756C62 279.524 61.472 280.208 59.984 280.208C58.184 280.208 57.464 279.296 57.344 278.12H56.264C56.384 280.088 57.956 281.168 59.984 281.168C62.156 281.168 63.08 280.004 63.08 278.756C63.08 276.8 61.82 276.476 59.888 275.996ZM66.8357 275.72V274.88H65.6357V272.84H64.6757V274.88H63.7757V275.72H64.6757V279.5C64.6757 280.748 65.2997 281.072 66.1157 281.072C66.3677 281.072 66.6197 281.048 66.8357 281V280.16C66.0197 280.22 65.6357 280.1 65.6357 279.404V275.72H66.8357ZM73.0237 274.88H71.9437L70.1797 279.872H70.1557L68.2837 274.88H67.2037L69.5197 280.496C69.7597 281.096 69.5077 281.612 69.2557 281.888C68.9317 282.236 68.5597 282.272 68.0317 282.224H67.8877V282.944C68.0437 282.992 68.3197 283.064 68.7037 283.064C69.8317 283.064 70.1437 282.164 70.4077 281.504L73.0237 274.88ZM73.7468 272.42V281H74.7068V272.42H73.7468ZM78.6703 280.328C77.3383 280.328 76.6783 279.296 76.6783 278.192H81.5143C81.5143 276.02 80.5783 274.712 78.6583 274.712C76.8703 274.712 75.7183 275.9 75.7183 277.94C75.7183 279.86 76.8463 281.168 78.7063 281.168C80.2303 281.168 81.1063 280.256 81.4183 279.116H80.4583C80.3503 279.536 79.8943 280.328 78.6703 280.328ZM78.6583 275.552C79.8103 275.552 80.5543 276.368 80.5543 277.352H76.6783C76.6783 276.368 77.5063 275.552 78.6583 275.552ZM84.9487 277.364C84.0967 277.16 83.2687 277.1 83.2687 276.38C83.2687 275.9 83.7367 275.552 84.6007 275.552C85.7527 275.552 85.9807 276.164 86.0767 276.632H87.0367C86.9407 275.576 86.1247 274.712 84.6007 274.712C83.1607 274.712 82.3087 275.492 82.3087 276.452C82.3087 277.892 83.7007 278 84.6367 278.228C85.5127 278.444 86.3167 278.492 86.3167 279.38C86.3167 279.788 85.9087 280.328 84.8647 280.328C83.3287 280.328 83.0887 279.644 83.0287 278.96H82.0687C82.1287 280.28 82.9927 281.168 84.8647 281.168C86.2567 281.168 87.2767 280.436 87.2767 279.32C87.2767 277.808 86.0407 277.628 84.9487 277.364ZM91.2069 274.712C90.1629 274.712 89.5149 275.18 89.1909 275.612H89.1669V272.42H88.2069V281H89.1669V277.184C89.1669 276.236 89.8869 275.552 90.9669 275.552C91.9269 275.552 92.2989 276.176 92.2989 276.968V281H93.2589V276.728C93.2589 275.324 92.3229 274.712 91.2069 274.712ZM97.1507 280.328C95.8187 280.328 95.1587 279.296 95.1587 278.192H99.9947C99.9947 276.02 99.0587 274.712 97.1387 274.712C95.3507 274.712 94.1987 275.9 94.1987 277.94C94.1987 279.86 95.3267 281.168 97.1867 281.168C98.7107 281.168 99.5867 280.256 99.8987 279.116H98.9387C98.8307 279.536 98.3747 280.328 97.1507 280.328ZM97.1387 275.552C98.2907 275.552 99.0347 276.368 99.0347 277.352H95.1587C95.1587 276.368 95.9867 275.552 97.1387 275.552ZM103.549 280.328C102.217 280.328 101.557 279.296 101.557 278.192H106.393C106.393 276.02 105.457 274.712 103.537 274.712C101.749 274.712 100.597 275.9 100.597 277.94C100.597 279.86 101.725 281.168 103.585 281.168C105.109 281.168 105.985 280.256 106.297 279.116H105.337C105.229 279.536 104.773 280.328 103.549 280.328ZM103.537 275.552C104.689 275.552 105.433 276.368 105.433 277.352H101.557C101.557 276.368 102.385 275.552 103.537 275.552ZM109.89 275.72V274.88H108.69V272.84H107.73V274.88H106.83V275.72H107.73V279.5C107.73 280.748 108.354 281.072 109.17 281.072C109.422 281.072 109.674 281.048 109.89 281V280.16C109.074 280.22 108.69 280.1 108.69 279.404V275.72H109.89Z" fill="black"/>
<path d="M57.884 311.164V308.38H62.624V307.42H56.804V316H57.884V312.124H61.712V311.164H57.884ZM67.2316 309.88V313.696C67.2316 314.644 66.5116 315.328 65.4316 315.328C64.4716 315.328 64.0996 314.704 64.0996 313.912V309.88H63.1396V314.152C63.1396 315.556 64.0756 316.168 65.1916 316.168C66.2356 316.168 66.8836 315.7 67.2076 315.268H67.2316V316H68.1916V309.88H67.2316ZM69.5515 307.42V316H70.5115V307.42H69.5515ZM71.7898 307.42V316H72.7498V307.42H71.7898ZM77.7356 311.164V308.38H82.4756V307.42H76.6556V316H77.7356V312.124H81.5636V311.164H77.7356ZM85.562 316.168C83.69 316.168 82.562 314.848 82.562 312.94C82.562 311.032 83.69 309.712 85.562 309.712C87.422 309.712 88.55 311.032 88.55 312.94C88.55 314.848 87.422 316.168 85.562 316.168ZM85.562 315.328C86.93 315.328 87.59 314.248 87.59 312.94C87.59 311.632 86.93 310.552 85.562 310.552C84.182 310.552 83.522 311.632 83.522 312.94C83.522 314.248 84.182 315.328 85.562 315.328ZM92.5194 309.712C91.4754 309.712 90.8274 310.18 90.5034 310.612H90.4794V309.88H89.5194V316H90.4794V312.184C90.4794 311.236 91.1994 310.552 92.2794 310.552C93.2394 310.552 93.6114 311.176 93.6114 311.968V316H94.5714V311.728C94.5714 310.324 93.6354 309.712 92.5194 309.712ZM98.406 310.72V309.88H97.206V307.84H96.246V309.88H95.346V310.72H96.246V314.5C96.246 315.748 96.87 316.072 97.686 316.072C97.938 316.072 98.19 316.048 98.406 316V315.16C97.59 315.22 97.206 315.1 97.206 314.404V310.72H98.406ZM104.392 308.26V307.42C104.176 307.372 103.924 307.348 103.708 307.348C102.892 307.348 102.268 307.672 102.268 308.92V309.88H101.416V310.72H102.268V316H103.228V310.72H104.392V309.88H103.228V309.016C103.228 308.32 103.576 308.2 104.392 308.26ZM108.896 311.44C108.896 312.052 108.428 312.184 107.396 312.376C105.812 312.676 104.78 313.036 104.78 314.428C104.78 315.46 105.56 316.168 106.796 316.168C107.804 316.168 108.488 315.808 108.872 315.232H108.896C109.064 315.904 109.412 316.06 109.988 316.06C110.168 316.06 110.3 316.048 110.552 315.964V315.292C109.94 315.364 109.856 315.1 109.856 314.62V311.644C109.856 310.168 108.812 309.712 107.648 309.712C105.872 309.712 105.14 310.6 105.08 311.776H106.04C106.1 310.888 106.484 310.552 107.648 310.552C108.632 310.552 108.896 310.96 108.896 311.44ZM106.892 315.328C106.1 315.328 105.74 314.98 105.74 314.38C105.74 313.648 106.292 313.348 107.48 313.096C108.128 312.964 108.716 312.796 108.896 312.616V313.636C108.896 314.812 108.032 315.328 106.892 315.328ZM117.665 309.712C116.741 309.712 116.105 310.192 115.685 310.768H115.661C115.409 310.084 114.905 309.712 114.029 309.712C113.105 309.712 112.577 310.18 112.253 310.612H112.229V309.88H111.269V316H112.229V312.184C112.229 311.236 112.829 310.552 113.789 310.552C114.749 310.552 114.905 311.176 114.905 311.968V316H115.865V312.184C115.865 311.236 116.465 310.552 117.425 310.552C118.385 310.552 118.541 311.176 118.541 311.968V316H119.501V311.728C119.501 310.444 118.901 309.712 117.665 309.712ZM121.385 308.692C121.661 308.692 121.985 308.488 121.985 308.116C121.985 307.744 121.661 307.54 121.385 307.54C121.121 307.54 120.785 307.744 120.785 308.116C120.785 308.488 121.121 308.692 121.385 308.692ZM120.905 309.88V316H121.865V309.88H120.905ZM123.223 307.42V316H124.183V307.42H123.223ZM130.727 309.88H129.647L127.883 314.872H127.859L125.987 309.88H124.907L127.223 315.496C127.463 316.096 127.211 316.612 126.959 316.888C126.635 317.236 126.263 317.272 125.735 317.224H125.591V317.944C125.747 317.992 126.023 318.064 126.407 318.064C127.535 318.064 127.847 317.164 128.111 316.504L130.727 309.88Z" fill="black"/>
<path d="M56.804 353H57.884V349.532H60.344C62.516 349.532 61.7 352.64 62.072 353H63.236V352.928C62.792 352.784 63.488 349.412 61.58 349.04V349.016C62.528 348.776 63.116 348.092 63.116 346.856C63.116 345.332 61.976 344.42 60.284 344.42H56.804V353ZM57.884 345.38H60.032C60.92 345.38 62.036 345.488 62.036 346.976C62.036 348.464 60.92 348.572 60.032 348.572H57.884V345.38ZM66.8472 353.168C64.9752 353.168 63.8472 351.848 63.8472 349.94C63.8472 348.032 64.9752 346.712 66.8472 346.712C68.7072 346.712 69.8352 348.032 69.8352 349.94C69.8352 351.848 68.7072 353.168 66.8472 353.168ZM66.8472 352.328C68.2152 352.328 68.8752 351.248 68.8752 349.94C68.8752 348.632 68.2152 347.552 66.8472 347.552C65.4672 347.552 64.8072 348.632 64.8072 349.94C64.8072 351.248 65.4672 352.328 66.8472 352.328ZM75.8713 346.88H74.7913L73.0273 351.872H73.0033L71.1313 346.88H70.0513L72.3673 352.496C72.6073 353.096 72.3553 353.612 72.1033 353.888C71.7793 354.236 71.4073 354.272 70.8793 354.224H70.7353V354.944C70.8913 354.992 71.1673 355.064 71.5513 355.064C72.6793 355.064 72.9913 354.164 73.2553 353.504L75.8713 346.88ZM80.1267 348.44C80.1267 349.052 79.6587 349.184 78.6267 349.376C77.0427 349.676 76.0107 350.036 76.0107 351.428C76.0107 352.46 76.7907 353.168 78.0267 353.168C79.0347 353.168 79.7187 352.808 80.1027 352.232H80.1267C80.2947 352.904 80.6427 353.06 81.2187 353.06C81.3987 353.06 81.5307 353.048 81.7827 352.964V352.292C81.1707 352.364 81.0867 352.1 81.0867 351.62V348.644C81.0867 347.168 80.0427 346.712 78.8787 346.712C77.1027 346.712 76.3707 347.6 76.3107 348.776H77.2707C77.3307 347.888 77.7147 347.552 78.8787 347.552C79.8627 347.552 80.1267 347.96 80.1267 348.44ZM78.1227 352.328C77.3307 352.328 76.9707 351.98 76.9707 351.38C76.9707 350.648 77.5227 350.348 78.7107 350.096C79.3587 349.964 79.9467 349.796 80.1267 349.616V350.636C80.1267 351.812 79.2627 352.328 78.1227 352.328ZM82.5358 344.42V353H83.4958V344.42H82.5358ZM87.5193 347.72V346.88H86.3193V344.84H85.3593V346.88H84.4593V347.72H85.3593V351.5C85.3593 352.748 85.9833 353.072 86.7993 353.072C87.0513 353.072 87.3033 353.048 87.5193 353V352.16C86.7033 352.22 86.3193 352.1 86.3193 351.404V347.72H87.5193ZM93.7073 346.88H92.6273L90.8633 351.872H90.8393L88.9673 346.88H87.8873L90.2033 352.496C90.4433 353.096 90.1913 353.612 89.9393 353.888C89.6153 354.236 89.2433 354.272 88.7153 354.224H88.5713V354.944C88.7273 354.992 89.0033 355.064 89.3873 355.064C90.5153 355.064 90.8273 354.164 91.0913 353.504L93.7073 346.88ZM93.956 349.46V350.42H97.172V349.46H93.956ZM100.865 345.26V344.42C100.649 344.372 100.397 344.348 100.181 344.348C99.365 344.348 98.741 344.672 98.741 345.92V346.88H97.889V347.72H98.741V353H99.701V347.72H100.865V346.88H99.701V346.016C99.701 345.32 100.049 345.2 100.865 345.26ZM104.477 346.712C103.601 346.712 103.109 347.288 102.785 348.092H102.761V346.88H101.801V353H102.761V349.736C102.761 348.428 103.685 347.492 105.017 347.708H105.041V346.748C104.873 346.724 104.705 346.712 104.477 346.712ZM108.284 352.328C106.952 352.328 106.292 351.296 106.292 350.192H111.128C111.128 348.02 110.192 346.712 108.272 346.712C106.484 346.712 105.332 347.9 105.332 349.94C105.332 351.86 106.46 353.168 108.32 353.168C109.844 353.168 110.72 352.256 111.032 351.116H110.072C109.964 351.536 109.508 352.328 108.284 352.328ZM108.272 347.552C109.424 347.552 110.168 348.368 110.168 349.352H106.292C106.292 348.368 107.12 347.552 108.272 347.552ZM114.682 352.328C113.35 352.328 112.69 351.296 112.69 350.192H117.526C117.526 348.02 116.59 346.712 114.67 346.712C112.882 346.712 111.73 347.9 111.73 349.94C111.73 351.86 112.858 353.168 114.718 353.168C116.242 353.168 117.118 352.256 117.43 351.116H116.47C116.362 351.536 115.906 352.328 114.682 352.328ZM114.67 347.552C115.822 347.552 116.566 348.368 116.566 349.352H112.69C112.69 348.368 113.518 347.552 114.67 347.552ZM121.479 345.692C121.755 345.692 122.079 345.488 122.079 345.116C122.079 344.744 121.755 344.54 121.479 344.54C121.215 344.54 120.879 344.744 120.879 345.116C120.879 345.488 121.215 345.692 121.479 345.692ZM120.999 346.88V353H121.959V346.88H120.999ZM129.794 346.712C128.87 346.712 128.234 347.192 127.814 347.768H127.79C127.538 347.084 127.034 346.712 126.158 346.712C125.234 346.712 124.706 347.18 124.382 347.612H124.358V346.88H123.398V353H124.358V349.184C124.358 348.236 124.958 347.552 125.918 347.552C126.878 347.552 127.034 348.176 127.034 348.968V353H127.994V349.184C127.994 348.236 128.594 347.552 129.554 347.552C130.514 347.552 130.67 348.176 130.67 348.968V353H131.63V348.728C131.63 347.444 131.03 346.712 129.794 346.712ZM136.658 348.44C136.658 349.052 136.19 349.184 135.158 349.376C133.574 349.676 132.542 350.036 132.542 351.428C132.542 352.46 133.322 353.168 134.558 353.168C135.566 353.168 136.25 352.808 136.634 352.232H136.658C136.826 352.904 137.174 353.06 137.75 353.06C137.93 353.06 138.062 353.048 138.314 352.964V352.292C137.702 352.364 137.618 352.1 137.618 351.62V348.644C137.618 347.168 136.574 346.712 135.41 346.712C133.634 346.712 132.902 347.6 132.842 348.776H133.802C133.862 347.888 134.246 347.552 135.41 347.552C136.394 347.552 136.658 347.96 136.658 348.44ZM134.654 352.328C133.862 352.328 133.502 351.98 133.502 351.38C133.502 350.648 134.054 350.348 135.242 350.096C135.89 349.964 136.478 349.796 136.658 349.616V350.636C136.658 351.812 135.794 352.328 134.654 352.328ZM143.387 346.88V347.636H143.363C143.003 347.168 142.427 346.712 141.419 346.712C139.907 346.712 138.683 347.684 138.683 349.7C138.683 351.716 139.907 352.688 141.419 352.688C142.427 352.688 143.003 352.256 143.363 351.728H143.387V352.652C143.387 353.792 142.727 354.284 141.587 354.284C140.447 354.284 139.943 353.816 139.823 353.192H138.863C138.959 354.236 139.955 355.124 141.635 355.124C143.315 355.124 144.347 354.296 144.347 352.664V346.88H143.387ZM141.539 351.848C140.279 351.848 139.643 350.9 139.643 349.7C139.643 348.5 140.279 347.552 141.539 347.552C142.679 347.552 143.387 348.26 143.387 349.7C143.387 351.14 142.679 351.848 141.539 351.848ZM148.268 352.328C146.936 352.328 146.276 351.296 146.276 350.192H151.112C151.112 348.02 150.176 346.712 148.256 346.712C146.468 346.712 145.316 347.9 145.316 349.94C145.316 351.86 146.444 353.168 148.304 353.168C149.828 353.168 150.704 352.256 151.016 351.116H150.056C149.948 351.536 149.492 352.328 148.268 352.328ZM148.256 347.552C149.408 347.552 150.152 348.368 150.152 349.352H146.276C146.276 348.368 147.104 347.552 148.256 347.552ZM154.546 349.364C153.694 349.16 152.866 349.1 152.866 348.38C152.866 347.9 153.334 347.552 154.198 347.552C155.35 347.552 155.578 348.164 155.674 348.632H156.634C156.538 347.576 155.722 346.712 154.198 346.712C152.758 346.712 151.906 347.492 151.906 348.452C151.906 349.892 153.298 350 154.234 350.228C155.11 350.444 155.914 350.492 155.914 351.38C155.914 351.788 155.506 352.328 154.462 352.328C152.926 352.328 152.686 351.644 152.626 350.96H151.666C151.726 352.28 152.59 353.168 154.462 353.168C155.854 353.168 156.874 352.436 156.874 351.32C156.874 349.808 155.638 349.628 154.546 349.364Z" fill="black"/>
<path d="M862.473 312.527C862.347 312.401 862.177 312.331 861.999 312.331C861.822 312.331 861.652 312.401 861.526 312.527C861.401 312.652 861.33 312.822 861.33 313C861.33 313.177 861.401 313.348 861.526 313.473L863.526 315.473C863.588 315.535 863.662 315.584 863.744 315.617C863.825 315.65 863.912 315.667 863.999 315.667C864.091 315.664 864.18 315.642 864.263 315.603C864.346 315.564 864.419 315.509 864.479 315.44L869.146 310.107C869.254 309.973 869.306 309.803 869.291 309.631C869.276 309.46 869.196 309.301 869.067 309.188C868.938 309.074 868.771 309.015 868.599 309.022C868.427 309.03 868.265 309.103 868.146 309.227L863.999 314.027L862.473 312.527Z" fill="#290B09"/>
<path d="M869.999 312.333C869.822 312.333 869.653 312.403 869.528 312.529C869.403 312.654 869.333 312.823 869.333 313C869.333 314.414 868.771 315.771 867.77 316.771C866.77 317.771 865.414 318.333 863.999 318.333C862.946 318.333 861.916 318.02 861.04 317.436C860.164 316.851 859.481 316.02 859.077 315.047C858.673 314.075 858.565 313.004 858.769 311.971C858.972 310.937 859.477 309.987 860.219 309.24C860.713 308.74 861.302 308.343 861.951 308.072C862.6 307.802 863.296 307.664 863.999 307.667C864.426 307.669 864.85 307.718 865.266 307.813C865.353 307.84 865.444 307.849 865.535 307.839C865.625 307.829 865.713 307.801 865.792 307.756C865.871 307.711 865.94 307.65 865.995 307.578C866.05 307.505 866.089 307.422 866.111 307.333C866.132 307.245 866.135 307.153 866.12 307.063C866.104 306.973 866.071 306.888 866.021 306.812C865.971 306.735 865.906 306.67 865.83 306.62C865.754 306.57 865.669 306.536 865.579 306.52C865.061 306.398 864.531 306.335 863.999 306.333C862.682 306.34 861.397 306.737 860.305 307.474C859.213 308.21 858.364 309.254 857.865 310.473C857.365 311.692 857.238 313.031 857.5 314.322C857.761 315.613 858.399 316.798 859.333 317.727C860.57 318.965 862.248 319.663 863.999 319.667C865.767 319.667 867.463 318.964 868.713 317.714C869.964 316.464 870.666 314.768 870.666 313C870.666 312.823 870.596 312.654 870.471 312.529C870.346 312.403 870.176 312.333 869.999 312.333Z" fill="#290B09"/>
<path d="M687.473 312.527C687.347 312.401 687.177 312.331 686.999 312.331C686.822 312.331 686.652 312.401 686.526 312.527C686.401 312.652 686.33 312.822 686.33 313C686.33 313.177 686.401 313.348 686.526 313.473L688.526 315.473C688.588 315.535 688.662 315.584 688.744 315.617C688.825 315.65 688.912 315.667 688.999 315.667C689.091 315.664 689.18 315.642 689.263 315.603C689.346 315.564 689.419 315.509 689.479 315.44L694.146 310.107C694.254 309.973 694.306 309.803 694.291 309.631C694.276 309.46 694.196 309.301 694.067 309.188C693.938 309.074 693.771 309.015 693.599 309.022C693.427 309.03 693.265 309.103 693.146 309.227L688.999 314.027L687.473 312.527Z" fill="#290B09"/>
<path d="M694.999 312.333C694.822 312.333 694.653 312.403 694.528 312.529C694.403 312.654 694.333 312.823 694.333 313C694.333 314.414 693.771 315.771 692.77 316.771C691.77 317.771 690.414 318.333 688.999 318.333C687.946 318.333 686.916 318.02 686.04 317.436C685.164 316.851 684.481 316.02 684.077 315.047C683.673 314.075 683.565 313.004 683.769 311.971C683.972 310.937 684.477 309.987 685.219 309.24C685.713 308.74 686.302 308.343 686.951 308.072C687.6 307.802 688.296 307.664 688.999 307.667C689.426 307.669 689.85 307.718 690.266 307.813C690.353 307.84 690.444 307.849 690.535 307.839C690.625 307.829 690.713 307.801 690.792 307.756C690.871 307.711 690.94 307.65 690.995 307.578C691.05 307.505 691.089 307.422 691.111 307.333C691.132 307.245 691.135 307.153 691.12 307.063C691.104 306.973 691.071 306.888 691.021 306.812C690.971 306.735 690.906 306.67 690.83 306.62C690.754 306.57 690.669 306.536 690.579 306.52C690.061 306.398 689.531 306.335 688.999 306.333C687.682 306.34 686.397 306.737 685.305 307.474C684.213 308.21 683.364 309.254 682.865 310.473C682.365 311.692 682.238 313.031 682.5 314.322C682.761 315.613 683.399 316.798 684.333 317.727C685.57 318.965 687.248 319.663 688.999 319.667C690.767 319.667 692.463 318.964 693.713 317.714C694.964 316.464 695.666 314.768 695.666 313C695.666 312.823 695.596 312.654 695.471 312.529C695.346 312.403 695.176 312.333 694.999 312.333Z" fill="#290B09"/>
<path d="M56.804 388H57.884V380.956H57.908L62.192 388H63.512V379.42H62.432V386.488H62.408L58.124 379.42H56.804V388ZM69.0363 381.88V385.696C69.0363 386.644 68.3163 387.328 67.2363 387.328C66.2763 387.328 65.9043 386.704 65.9043 385.912V381.88H64.9443V386.152C64.9443 387.556 65.8803 388.168 66.9963 388.168C68.0403 388.168 68.6883 387.7 69.0123 387.268H69.0363V388H69.9963V381.88H69.0363ZM77.7162 381.712C76.7922 381.712 76.1562 382.192 75.7362 382.768H75.7122C75.4602 382.084 74.9562 381.712 74.0802 381.712C73.1562 381.712 72.6282 382.18 72.3042 382.612H72.2802V381.88H71.3202V388H72.2802V384.184C72.2802 383.236 72.8802 382.552 73.8402 382.552C74.8002 382.552 74.9562 383.176 74.9562 383.968V388H75.9162V384.184C75.9162 383.236 76.5162 382.552 77.4762 382.552C78.4362 382.552 78.5922 383.176 78.5922 383.968V388H79.5522V383.728C79.5522 382.444 78.9522 381.712 77.7162 381.712ZM83.7398 381.712C82.7558 381.712 82.1798 382.144 81.8198 382.672H81.7958V379.42H80.8358V388H81.7958V387.244H81.8198C82.1798 387.712 82.7558 388.168 83.7398 388.168C85.2758 388.168 86.4998 386.956 86.4998 384.94C86.4998 382.924 85.2758 381.712 83.7398 381.712ZM83.6438 387.328C82.5038 387.328 81.7958 386.38 81.7958 384.94C81.7958 383.5 82.5038 382.552 83.6438 382.552C84.9038 382.552 85.5398 383.74 85.5398 384.94C85.5398 386.14 84.9038 387.328 83.6438 387.328ZM90.0726 387.328C88.7406 387.328 88.0806 386.296 88.0806 385.192H92.9166C92.9166 383.02 91.9806 381.712 90.0606 381.712C88.2726 381.712 87.1206 382.9 87.1206 384.94C87.1206 386.86 88.2486 388.168 90.1086 388.168C91.6326 388.168 92.5086 387.256 92.8206 386.116H91.8606C91.7526 386.536 91.2966 387.328 90.0726 387.328ZM90.0606 382.552C91.2126 382.552 91.9566 383.368 91.9566 384.352H88.0806C88.0806 383.368 88.9086 382.552 90.0606 382.552ZM96.543 381.712C95.667 381.712 95.175 382.288 94.851 383.092H94.827V381.88H93.867V388H94.827V384.736C94.827 383.428 95.751 382.492 97.083 382.708H97.107V381.748C96.939 381.724 96.771 381.712 96.543 381.712ZM103.035 388.168C101.163 388.168 100.035 386.848 100.035 384.94C100.035 383.032 101.163 381.712 103.035 381.712C104.895 381.712 106.023 383.032 106.023 384.94C106.023 386.848 104.895 388.168 103.035 388.168ZM103.035 387.328C104.403 387.328 105.063 386.248 105.063 384.94C105.063 383.632 104.403 382.552 103.035 382.552C101.655 382.552 100.995 383.632 100.995 384.94C100.995 386.248 101.655 387.328 103.035 387.328ZM109.455 380.26V379.42C109.239 379.372 108.987 379.348 108.771 379.348C107.955 379.348 107.331 379.672 107.331 380.92V381.88H106.479V382.72H107.331V388H108.291V382.72H109.455V381.88H108.291V381.016C108.291 380.32 108.639 380.2 109.455 380.26ZM115.721 381.712C114.713 381.712 114.137 382.168 113.777 382.636H113.753V381.88H112.793V390.064H113.753V387.208H113.777C114.137 387.736 114.713 388.168 115.721 388.168C117.233 388.168 118.457 386.956 118.457 384.94C118.457 382.924 117.233 381.712 115.721 381.712ZM115.601 387.328C114.461 387.328 113.753 386.38 113.753 384.94C113.753 383.5 114.461 382.552 115.601 382.552C116.861 382.552 117.497 383.74 117.497 384.94C117.497 386.14 116.861 387.328 115.601 387.328ZM122.113 388.168C120.241 388.168 119.113 386.848 119.113 384.94C119.113 383.032 120.241 381.712 122.113 381.712C123.973 381.712 125.101 383.032 125.101 384.94C125.101 386.848 123.973 388.168 122.113 388.168ZM122.113 387.328C123.481 387.328 124.141 386.248 124.141 384.94C124.141 383.632 123.481 382.552 122.113 382.552C120.733 382.552 120.073 383.632 120.073 384.94C120.073 386.248 120.733 387.328 122.113 387.328ZM128.554 384.364C127.702 384.16 126.874 384.1 126.874 383.38C126.874 382.9 127.342 382.552 128.206 382.552C129.358 382.552 129.586 383.164 129.682 383.632H130.642C130.546 382.576 129.73 381.712 128.206 381.712C126.766 381.712 125.914 382.492 125.914 383.452C125.914 384.892 127.306 385 128.242 385.228C129.118 385.444 129.922 385.492 129.922 386.38C129.922 386.788 129.514 387.328 128.47 387.328C126.934 387.328 126.694 386.644 126.634 385.96H125.674C125.734 387.28 126.598 388.168 128.47 388.168C129.862 388.168 130.882 387.436 130.882 386.32C130.882 384.808 129.646 384.628 128.554 384.364ZM134.296 384.364C133.444 384.16 132.616 384.1 132.616 383.38C132.616 382.9 133.084 382.552 133.948 382.552C135.1 382.552 135.328 383.164 135.424 383.632H136.384C136.288 382.576 135.472 381.712 133.948 381.712C132.508 381.712 131.656 382.492 131.656 383.452C131.656 384.892 133.048 385 133.984 385.228C134.86 385.444 135.664 385.492 135.664 386.38C135.664 386.788 135.256 387.328 134.212 387.328C132.676 387.328 132.436 386.644 132.376 385.96H131.416C131.476 387.28 132.34 388.168 134.212 388.168C135.604 388.168 136.624 387.436 136.624 386.32C136.624 384.808 135.388 384.628 134.296 384.364ZM138.155 380.692C138.431 380.692 138.755 380.488 138.755 380.116C138.755 379.744 138.431 379.54 138.155 379.54C137.891 379.54 137.555 379.744 137.555 380.116C137.555 380.488 137.891 380.692 138.155 380.692ZM137.675 381.88V388H138.635V381.88H137.675ZM142.861 381.712C141.877 381.712 141.301 382.144 140.941 382.672H140.917V379.42H139.957V388H140.917V387.244H140.941C141.301 387.712 141.877 388.168 142.861 388.168C144.397 388.168 145.621 386.956 145.621 384.94C145.621 382.924 144.397 381.712 142.861 381.712ZM142.765 387.328C141.625 387.328 140.917 386.38 140.917 384.94C140.917 383.5 141.625 382.552 142.765 382.552C144.025 382.552 144.661 383.74 144.661 384.94C144.661 386.14 144.025 387.328 142.765 387.328ZM146.626 379.42V388H147.586V379.42H146.626ZM151.549 387.328C150.217 387.328 149.557 386.296 149.557 385.192H154.393C154.393 383.02 153.457 381.712 151.537 381.712C149.749 381.712 148.597 382.9 148.597 384.94C148.597 386.86 149.725 388.168 151.585 388.168C153.109 388.168 153.985 387.256 154.297 386.116H153.337C153.229 386.536 152.773 387.328 151.549 387.328ZM151.537 382.552C152.689 382.552 153.433 383.368 153.433 384.352H149.557C149.557 383.368 150.385 382.552 151.537 382.552ZM161.49 383.44C161.49 384.052 161.022 384.184 159.99 384.376C158.406 384.676 157.374 385.036 157.374 386.428C157.374 387.46 158.154 388.168 159.39 388.168C160.398 388.168 161.082 387.808 161.466 387.232H161.49C161.658 387.904 162.006 388.06 162.582 388.06C162.762 388.06 162.894 388.048 163.146 387.964V387.292C162.534 387.364 162.45 387.1 162.45 386.62V383.644C162.45 382.168 161.406 381.712 160.242 381.712C158.466 381.712 157.734 382.6 157.674 383.776H158.634C158.694 382.888 159.078 382.552 160.242 382.552C161.226 382.552 161.49 382.96 161.49 383.44ZM159.486 387.328C158.694 387.328 158.334 386.98 158.334 386.38C158.334 385.648 158.886 385.348 160.074 385.096C160.722 384.964 161.31 384.796 161.49 384.616V385.636C161.49 386.812 160.626 387.328 159.486 387.328ZM168.207 384.088H169.167C169.023 382.72 167.991 381.712 166.479 381.712C164.691 381.712 163.515 383.02 163.515 384.94C163.515 386.86 164.691 388.168 166.479 388.168C167.991 388.168 169.083 387.136 169.167 385.744H168.207C168.159 386.476 167.715 387.328 166.479 387.328C165.027 387.328 164.475 386.092 164.475 384.94C164.475 383.788 165.027 382.552 166.479 382.552C167.703 382.552 168.159 383.416 168.207 384.088ZM174.43 384.088H175.39C175.246 382.72 174.214 381.712 172.702 381.712C170.914 381.712 169.738 383.02 169.738 384.94C169.738 386.86 170.914 388.168 172.702 388.168C174.214 388.168 175.306 387.136 175.39 385.744H174.43C174.382 386.476 173.938 387.328 172.702 387.328C171.25 387.328 170.698 386.092 170.698 384.94C170.698 383.788 171.25 382.552 172.702 382.552C173.926 382.552 174.382 383.416 174.43 384.088ZM178.96 388.168C177.088 388.168 175.96 386.848 175.96 384.94C175.96 383.032 177.088 381.712 178.96 381.712C180.82 381.712 181.948 383.032 181.948 384.94C181.948 386.848 180.82 388.168 178.96 388.168ZM178.96 387.328C180.328 387.328 180.988 386.248 180.988 384.94C180.988 383.632 180.328 382.552 178.96 382.552C177.58 382.552 176.92 383.632 176.92 384.94C176.92 386.248 177.58 387.328 178.96 387.328ZM186.974 381.88V385.696C186.974 386.644 186.254 387.328 185.174 387.328C184.214 387.328 183.842 386.704 183.842 385.912V381.88H182.882V386.152C182.882 387.556 183.818 388.168 184.934 388.168C185.978 388.168 186.626 387.7 186.95 387.268H186.974V388H187.934V381.88H186.974ZM192.258 381.712C191.214 381.712 190.566 382.18 190.242 382.612H190.218V381.88H189.258V388H190.218V384.184C190.218 383.236 190.938 382.552 192.018 382.552C192.978 382.552 193.35 383.176 193.35 383.968V388H194.31V383.728C194.31 382.324 193.374 381.712 192.258 381.712ZM198.144 382.72V381.88H196.944V379.84H195.984V381.88H195.084V382.72H195.984V386.5C195.984 387.748 196.608 388.072 197.424 388.072C197.676 388.072 197.928 388.048 198.144 388V387.16C197.328 387.22 196.944 387.1 196.944 386.404V382.72H198.144ZM201.632 384.364C200.78 384.16 199.952 384.1 199.952 383.38C199.952 382.9 200.42 382.552 201.284 382.552C202.436 382.552 202.664 383.164 202.76 383.632H203.72C203.624 382.576 202.808 381.712 201.284 381.712C199.844 381.712 198.992 382.492 198.992 383.452C198.992 384.892 200.384 385 201.32 385.228C202.196 385.444 203 385.492 203 386.38C203 386.788 202.592 387.328 201.548 387.328C200.012 387.328 199.772 386.644 199.712 385.96H198.752C198.812 387.28 199.676 388.168 201.548 388.168C202.94 388.168 203.96 387.436 203.96 386.32C203.96 384.808 202.724 384.628 201.632 384.364Z" fill="black"/>
<path d="M688.802 379.708C688.682 380.788 688.286 381.496 686.834 381.496V382.276C687.578 382.276 688.058 382.276 688.562 381.796V388H689.642V379.708H688.802Z" fill="black"/>
<path d="M866.49 388V386.056H867.63V385.096H866.49V379.708H865.41L861.414 385.096V386.056H865.41V388H866.49ZM865.41 381.208V385.096H862.518L865.41 381.208Z" fill="black"/>
<path d="M848.179 347.164V344.38H852.919V343.42H847.099V352H848.179V348.124H852.007V347.164H848.179ZM857.527 345.88V349.696C857.527 350.644 856.807 351.328 855.727 351.328C854.767 351.328 854.395 350.704 854.395 349.912V345.88H853.435V350.152C853.435 351.556 854.371 352.168 855.487 352.168C856.531 352.168 857.179 351.7 857.503 351.268H857.527V352H858.487V345.88H857.527ZM859.846 343.42V352H860.806V343.42H859.846ZM862.085 343.42V352H863.045V343.42H862.085ZM866.95 343.42V352H868.03V348.028H872.614V352H873.694V343.42H872.614V347.068H868.03V343.42H866.95ZM875.306 352H878.414C880.778 352 882.23 350.476 882.23 347.716C882.23 344.956 880.778 343.42 878.414 343.42H875.306V352ZM876.386 344.38H878.414C880.598 344.38 881.15 346.036 881.15 347.716C881.15 349.396 880.598 351.04 878.414 351.04H876.386V344.38Z" fill="black"/>
<path d="M655.253 347.164V344.38H659.993V343.42H654.173V352H655.253V348.124H659.081V347.164H655.253ZM661.567 344.692C661.843 344.692 662.167 344.488 662.167 344.116C662.167 343.744 661.843 343.54 661.567 343.54C661.303 343.54 660.967 343.744 660.967 344.116C660.967 344.488 661.303 344.692 661.567 344.692ZM661.087 345.88V352H662.047V345.88H661.087ZM667.842 345.88V346.636H667.818C667.458 346.168 666.882 345.712 665.874 345.712C664.362 345.712 663.138 346.684 663.138 348.7C663.138 350.716 664.362 351.688 665.874 351.688C666.882 351.688 667.458 351.256 667.818 350.728H667.842V351.652C667.842 352.792 667.182 353.284 666.042 353.284C664.902 353.284 664.398 352.816 664.278 352.192H663.318C663.414 353.236 664.41 354.124 666.09 354.124C667.77 354.124 668.802 353.296 668.802 351.664V345.88H667.842ZM665.994 350.848C664.734 350.848 664.098 349.9 664.098 348.7C664.098 347.5 664.734 346.552 665.994 346.552C667.134 346.552 667.842 347.26 667.842 348.7C667.842 350.14 667.134 350.848 665.994 350.848ZM676.515 345.712C675.591 345.712 674.955 346.192 674.535 346.768H674.511C674.259 346.084 673.755 345.712 672.879 345.712C671.955 345.712 671.427 346.18 671.103 346.612H671.079V345.88H670.119V352H671.079V348.184C671.079 347.236 671.679 346.552 672.639 346.552C673.599 346.552 673.755 347.176 673.755 347.968V352H674.715V348.184C674.715 347.236 675.315 346.552 676.275 346.552C677.235 346.552 677.391 347.176 677.391 347.968V352H678.351V347.728C678.351 346.444 677.751 345.712 676.515 345.712ZM683.379 347.44C683.379 348.052 682.911 348.184 681.879 348.376C680.295 348.676 679.263 349.036 679.263 350.428C679.263 351.46 680.043 352.168 681.279 352.168C682.287 352.168 682.971 351.808 683.355 351.232H683.379C683.547 351.904 683.895 352.06 684.471 352.06C684.651 352.06 684.783 352.048 685.035 351.964V351.292C684.423 351.364 684.339 351.1 684.339 350.62V347.644C684.339 346.168 683.295 345.712 682.131 345.712C680.355 345.712 679.623 346.6 679.563 347.776H680.523C680.583 346.888 680.967 346.552 682.131 346.552C683.115 346.552 683.379 346.96 683.379 347.44ZM681.375 351.328C680.583 351.328 680.223 350.98 680.223 350.38C680.223 349.648 680.775 349.348 681.963 349.096C682.611 348.964 683.199 348.796 683.379 348.616V349.636C683.379 350.812 682.515 351.328 681.375 351.328ZM688.322 343.42V352H689.402V343.42H688.322ZM697.281 345.712C696.357 345.712 695.721 346.192 695.301 346.768H695.277C695.025 346.084 694.521 345.712 693.645 345.712C692.721 345.712 692.193 346.18 691.869 346.612H691.845V345.88H690.885V352H691.845V348.184C691.845 347.236 692.445 346.552 693.405 346.552C694.365 346.552 694.521 347.176 694.521 347.968V352H695.481V348.184C695.481 347.236 696.081 346.552 697.041 346.552C698.001 346.552 698.157 347.176 698.157 347.968V352H699.117V347.728C699.117 346.444 698.517 345.712 697.281 345.712ZM704.144 347.44C704.144 348.052 703.676 348.184 702.644 348.376C701.06 348.676 700.028 349.036 700.028 350.428C700.028 351.46 700.808 352.168 702.044 352.168C703.052 352.168 703.736 351.808 704.12 351.232H704.144C704.312 351.904 704.66 352.06 705.236 352.06C705.416 352.06 705.548 352.048 705.8 351.964V351.292C705.188 351.364 705.104 351.1 705.104 350.62V347.644C705.104 346.168 704.06 345.712 702.896 345.712C701.12 345.712 700.388 346.6 700.328 347.776H701.288C701.348 346.888 701.732 346.552 702.896 346.552C703.88 346.552 704.144 346.96 704.144 347.44ZM702.14 351.328C701.348 351.328 700.988 350.98 700.988 350.38C700.988 349.648 701.54 349.348 702.728 349.096C703.376 348.964 703.964 348.796 704.144 348.616V349.636C704.144 350.812 703.28 351.328 702.14 351.328ZM710.873 345.88V346.636H710.849C710.489 346.168 709.913 345.712 708.905 345.712C707.393 345.712 706.169 346.684 706.169 348.7C706.169 350.716 707.393 351.688 708.905 351.688C709.913 351.688 710.489 351.256 710.849 350.728H710.873V351.652C710.873 352.792 710.213 353.284 709.073 353.284C707.933 353.284 707.429 352.816 707.309 352.192H706.349C706.445 353.236 707.441 354.124 709.121 354.124C710.801 354.124 711.833 353.296 711.833 351.664V345.88H710.873ZM709.025 350.848C707.765 350.848 707.129 349.9 707.129 348.7C707.129 347.5 707.765 346.552 709.025 346.552C710.165 346.552 710.873 347.26 710.873 348.7C710.873 350.14 710.165 350.848 709.025 350.848ZM715.754 351.328C714.422 351.328 713.762 350.296 713.762 349.192H718.598C718.598 347.02 717.662 345.712 715.742 345.712C713.954 345.712 712.802 346.9 712.802 348.94C712.802 350.86 713.93 352.168 715.79 352.168C717.314 352.168 718.19 351.256 718.502 350.116H717.542C717.434 350.536 716.978 351.328 715.754 351.328ZM715.742 346.552C716.894 346.552 717.638 347.368 717.638 348.352H713.762C713.762 347.368 714.59 346.552 715.742 346.552ZM722.033 348.364C721.181 348.16 720.353 348.1 720.353 347.38C720.353 346.9 720.821 346.552 721.685 346.552C722.837 346.552 723.065 347.164 723.161 347.632H724.121C724.025 346.576 723.209 345.712 721.685 345.712C720.245 345.712 719.393 346.492 719.393 347.452C719.393 348.892 720.785 349 721.721 349.228C722.597 349.444 723.401 349.492 723.401 350.38C723.401 350.788 722.993 351.328 721.949 351.328C720.413 351.328 720.173 350.644 720.113 349.96H719.153C719.213 351.28 720.077 352.168 721.949 352.168C723.341 352.168 724.361 351.436 724.361 350.32C724.361 348.808 723.125 348.628 722.033 348.364Z" fill="black"/>
<path d="M671.246 164.42V173H672.326V164.42H671.246ZM673.844 164.42V173H674.804V164.42H673.844ZM676.647 165.692C676.923 165.692 677.247 165.488 677.247 165.116C677.247 164.744 676.923 164.54 676.647 164.54C676.383 164.54 676.047 164.744 676.047 165.116C676.047 165.488 676.383 165.692 676.647 165.692ZM676.167 166.88V173H677.127V166.88H676.167ZM684.962 166.712C684.038 166.712 683.402 167.192 682.982 167.768H682.958C682.706 167.084 682.202 166.712 681.326 166.712C680.402 166.712 679.874 167.18 679.55 167.612H679.526V166.88H678.566V173H679.526V169.184C679.526 168.236 680.126 167.552 681.086 167.552C682.046 167.552 682.202 168.176 682.202 168.968V173H683.162V169.184C683.162 168.236 683.762 167.552 684.722 167.552C685.682 167.552 685.838 168.176 685.838 168.968V173H686.798V168.728C686.798 167.444 686.198 166.712 684.962 166.712ZM688.682 165.692C688.958 165.692 689.282 165.488 689.282 165.116C689.282 164.744 688.958 164.54 688.682 164.54C688.418 164.54 688.082 164.744 688.082 165.116C688.082 165.488 688.418 165.692 688.682 165.692ZM688.202 166.88V173H689.162V166.88H688.202ZM693.265 167.72V166.88H692.065V164.84H691.105V166.88H690.205V167.72H691.105V171.5C691.105 172.748 691.729 173.072 692.545 173.072C692.797 173.072 693.049 173.048 693.265 173V172.16C692.449 172.22 692.065 172.1 692.065 171.404V167.72H693.265ZM696.815 172.328C695.483 172.328 694.823 171.296 694.823 170.192H699.659C699.659 168.02 698.723 166.712 696.803 166.712C695.015 166.712 693.863 167.9 693.863 169.94C693.863 171.86 694.991 173.168 696.851 173.168C698.375 173.168 699.251 172.256 699.563 171.116H698.603C698.495 171.536 698.039 172.328 696.815 172.328ZM696.803 167.552C697.955 167.552 698.699 168.368 698.699 169.352H694.823C694.823 168.368 695.651 167.552 696.803 167.552ZM704.965 164.42V167.672H704.941C704.581 167.144 704.005 166.712 703.021 166.712C701.485 166.712 700.261 167.924 700.261 169.94C700.261 171.956 701.485 173.168 703.021 173.168C704.005 173.168 704.581 172.712 704.941 172.244H704.965V173H705.925V164.42H704.965ZM703.117 172.328C701.857 172.328 701.221 171.14 701.221 169.94C701.221 168.74 701.857 167.552 703.117 167.552C704.257 167.552 704.965 168.5 704.965 169.94C704.965 171.38 704.257 172.328 703.117 172.328Z" fill="black"/>
<path d="M492.551 81.552V77.84H498.871V76.56H491.111V88H492.551V82.832H497.655V81.552H492.551ZM503.175 79.616C502.007 79.616 501.351 80.384 500.919 81.456H500.887V79.84H499.607V88H500.887V83.648C500.887 81.904 502.119 80.656 503.895 80.944H503.927V79.664C503.703 79.632 503.479 79.616 503.175 79.616ZM508.25 87.104C506.474 87.104 505.594 85.728 505.594 84.256H512.042C512.042 81.36 510.794 79.616 508.234 79.616C505.85 79.616 504.314 81.2 504.314 83.92C504.314 86.48 505.818 88.224 508.298 88.224C510.33 88.224 511.498 87.008 511.914 85.488H510.634C510.49 86.048 509.882 87.104 508.25 87.104ZM508.234 80.736C509.77 80.736 510.762 81.824 510.762 83.136H505.594C505.594 81.824 506.698 80.736 508.234 80.736ZM516.782 87.104C515.006 87.104 514.126 85.728 514.126 84.256H520.574C520.574 81.36 519.326 79.616 516.766 79.616C514.382 79.616 512.846 81.2 512.846 83.92C512.846 86.48 514.35 88.224 516.83 88.224C518.862 88.224 520.03 87.008 520.446 85.488H519.166C519.022 86.048 518.414 87.104 516.782 87.104ZM516.766 80.736C518.302 80.736 519.294 81.824 519.294 83.136H514.126C514.126 81.824 515.23 80.736 516.766 80.736Z" fill="black"/>
<rect x="472.266" y="101.266" width="67.4688" height="22.8438" rx="1.32812" fill="#BBA686" stroke="#BBA686" stroke-width="0.53125"/>
<path d="M492.535 112.231C491.754 112.037 491.182 111.941 491.182 111.234C491.182 110.795 491.583 110.505 492.334 110.505C493.175 110.505 493.576 110.877 493.673 111.591H494.342C494.253 110.49 493.465 109.91 492.334 109.91C491.159 109.91 490.512 110.468 490.512 111.308C490.512 112.342 491.464 112.617 492.26 112.803C493.45 113.078 493.844 113.212 493.844 113.941C493.844 114.417 493.517 114.841 492.595 114.841C491.479 114.841 491.033 114.276 490.958 113.547H490.289C490.363 114.767 491.338 115.436 492.595 115.436C493.941 115.436 494.514 114.715 494.514 113.941C494.514 112.729 493.733 112.528 492.535 112.231ZM496.841 112.06V111.539H496.098V110.275H495.503V111.539H494.945V112.06H495.503V114.402C495.503 115.176 495.889 115.377 496.395 115.377C496.551 115.377 496.707 115.362 496.841 115.332V114.811C496.336 114.849 496.098 114.774 496.098 114.343V112.06H496.841ZM499.784 112.506C499.784 112.885 499.494 112.967 498.854 113.086C497.873 113.272 497.233 113.495 497.233 114.358C497.233 114.997 497.716 115.436 498.483 115.436C499.107 115.436 499.531 115.213 499.769 114.856H499.784C499.888 115.273 500.104 115.369 500.461 115.369C500.572 115.369 500.654 115.362 500.81 115.31V114.893C500.431 114.938 500.379 114.774 500.379 114.477V112.632C500.379 111.717 499.732 111.435 499.011 111.435C497.91 111.435 497.456 111.985 497.419 112.714H498.014C498.051 112.164 498.289 111.955 499.011 111.955C499.62 111.955 499.784 112.208 499.784 112.506ZM498.542 114.916C498.051 114.916 497.828 114.7 497.828 114.328C497.828 113.874 498.17 113.688 498.906 113.532C499.308 113.45 499.673 113.346 499.784 113.235V113.867C499.784 114.596 499.249 114.916 498.542 114.916ZM502.914 111.435C502.371 111.435 502.066 111.792 501.865 112.29H501.85V111.539H501.255V115.332H501.85V113.309C501.85 112.498 502.423 111.918 503.248 112.052H503.263V111.457C503.159 111.442 503.055 111.435 502.914 111.435ZM505.455 112.06V111.539H504.712V110.275H504.117V111.539H503.559V112.06H504.117V114.402C504.117 115.176 504.503 115.377 505.009 115.377C505.165 115.377 505.322 115.362 505.455 115.332V114.811C504.95 114.849 504.712 114.774 504.712 114.343V112.06H505.455ZM507.656 115.332H508.325V110.966H508.34L510.995 115.332H511.813V110.014H511.144V114.395H511.129L508.474 110.014H507.656V115.332ZM514.44 115.436C513.28 115.436 512.58 114.618 512.58 113.435C512.58 112.253 513.28 111.435 514.44 111.435C515.593 111.435 516.292 112.253 516.292 113.435C516.292 114.618 515.593 115.436 514.44 115.436ZM514.44 114.916C515.288 114.916 515.697 114.246 515.697 113.435C515.697 112.625 515.288 111.955 514.44 111.955C513.585 111.955 513.175 112.625 513.175 113.435C513.175 114.246 513.585 114.916 514.44 114.916ZM516.441 111.539L517.653 115.332H518.285L519.126 112.201H519.14L519.996 115.332H520.628L521.84 111.539H521.186L520.323 114.685H520.308L519.453 111.539H518.821L517.973 114.685H517.958L517.095 111.539H516.441Z" fill="white"/>
<path d="M505.802 379.708C505.682 380.788 505.286 381.496 503.834 381.496V382.276C504.578 382.276 505.058 382.276 505.562 381.796V388H506.642V379.708H505.802Z" fill="black"/>
<path d="M496.018 173.168C498.538 173.168 500.218 171.284 500.218 168.704C500.218 166.124 498.538 164.252 496.018 164.252C493.498 164.252 491.818 166.124 491.818 168.704C491.818 171.284 493.498 173.168 496.018 173.168ZM496.018 172.208C493.858 172.208 492.898 170.552 492.898 168.704C492.898 166.856 493.858 165.212 496.018 165.212C498.178 165.212 499.138 166.856 499.138 168.704C499.138 170.552 498.178 172.208 496.018 172.208ZM504.361 166.712C503.317 166.712 502.669 167.18 502.345 167.612H502.321V166.88H501.361V173H502.321V169.184C502.321 168.236 503.041 167.552 504.121 167.552C505.081 167.552 505.453 168.176 505.453 168.968V173H506.413V168.728C506.413 167.324 505.477 166.712 504.361 166.712ZM512.045 169.088H513.005C512.861 167.72 511.829 166.712 510.317 166.712C508.529 166.712 507.353 168.02 507.353 169.94C507.353 171.86 508.529 173.168 510.317 173.168C511.829 173.168 512.921 172.136 513.005 170.744H512.045C511.997 171.476 511.553 172.328 510.317 172.328C508.865 172.328 508.313 171.092 508.313 169.94C508.313 168.788 508.865 167.552 510.317 167.552C511.541 167.552 511.997 168.416 512.045 169.088ZM516.528 172.328C515.196 172.328 514.536 171.296 514.536 170.192H519.372C519.372 168.02 518.436 166.712 516.516 166.712C514.728 166.712 513.576 167.9 513.576 169.94C513.576 171.86 514.704 173.168 516.564 173.168C518.088 173.168 518.964 172.256 519.276 171.116H518.316C518.208 171.536 517.752 172.328 516.528 172.328ZM516.516 167.552C517.668 167.552 518.412 168.368 518.412 169.352H514.536C514.536 168.368 515.364 167.552 516.516 167.552Z" fill="black"/>
<path d="M846.246 164.42V173H847.326V164.42H846.246ZM848.844 164.42V173H849.804V164.42H848.844ZM851.647 165.692C851.923 165.692 852.247 165.488 852.247 165.116C852.247 164.744 851.923 164.54 851.647 164.54C851.383 164.54 851.047 164.744 851.047 165.116C851.047 165.488 851.383 165.692 851.647 165.692ZM851.167 166.88V173H852.127V166.88H851.167ZM859.962 166.712C859.038 166.712 858.402 167.192 857.982 167.768H857.958C857.706 167.084 857.202 166.712 856.326 166.712C855.402 166.712 854.874 167.18 854.55 167.612H854.526V166.88H853.566V173H854.526V169.184C854.526 168.236 855.126 167.552 856.086 167.552C857.046 167.552 857.202 168.176 857.202 168.968V173H858.162V169.184C858.162 168.236 858.762 167.552 859.722 167.552C860.682 167.552 860.838 168.176 860.838 168.968V173H861.798V168.728C861.798 167.444 861.198 166.712 859.962 166.712ZM863.682 165.692C863.958 165.692 864.282 165.488 864.282 165.116C864.282 164.744 863.958 164.54 863.682 164.54C863.418 164.54 863.082 164.744 863.082 165.116C863.082 165.488 863.418 165.692 863.682 165.692ZM863.202 166.88V173H864.162V166.88H863.202ZM868.265 167.72V166.88H867.065V164.84H866.105V166.88H865.205V167.72H866.105V171.5C866.105 172.748 866.729 173.072 867.545 173.072C867.797 173.072 868.049 173.048 868.265 173V172.16C867.449 172.22 867.065 172.1 867.065 171.404V167.72H868.265ZM871.815 172.328C870.483 172.328 869.823 171.296 869.823 170.192H874.659C874.659 168.02 873.723 166.712 871.803 166.712C870.015 166.712 868.863 167.9 868.863 169.94C868.863 171.86 869.991 173.168 871.851 173.168C873.375 173.168 874.251 172.256 874.563 171.116H873.603C873.495 171.536 873.039 172.328 871.815 172.328ZM871.803 167.552C872.955 167.552 873.699 168.368 873.699 169.352H869.823C869.823 168.368 870.651 167.552 871.803 167.552ZM879.965 164.42V167.672H879.941C879.581 167.144 879.005 166.712 878.021 166.712C876.485 166.712 875.261 167.924 875.261 169.94C875.261 171.956 876.485 173.168 878.021 173.168C879.005 173.168 879.581 172.712 879.941 172.244H879.965V173H880.925V164.42H879.965ZM878.117 172.328C876.857 172.328 876.221 171.14 876.221 169.94C876.221 168.74 876.857 167.552 878.117 167.552C879.257 167.552 879.965 168.5 879.965 169.94C879.965 171.38 879.257 172.328 878.117 172.328Z" fill="black"/>
<path d="M869.895 386.284V387.442H870.375V386.284H871.497V385.81H870.375V384.652H869.895V385.81H868.773V386.284H869.895ZM873.613 385.216C873.151 385.216 872.839 385.36 872.629 385.6V385.588L872.875 384.334H874.717V383.854H872.437L872.005 386.086H872.581C872.791 385.816 873.115 385.696 873.487 385.696C874.021 385.696 874.399 385.96 874.399 386.584C874.399 387.25 873.997 387.604 873.427 387.604C872.779 387.604 872.539 387.208 872.491 386.806H871.951C871.975 387.472 872.503 388.084 873.451 388.084C874.285 388.084 874.939 387.478 874.939 386.584C874.939 385.816 874.393 385.216 873.613 385.216ZM878.423 386.938C878.423 386.098 877.853 385.9 877.085 385.66V384.316C877.469 384.406 877.709 384.676 877.763 385.162H878.303C878.249 384.376 877.739 383.932 877.085 383.83V383.458H876.725V383.806C875.903 383.83 875.405 384.274 875.405 384.934C875.405 385.672 876.161 385.924 876.725 386.08V387.586C876.101 387.508 875.819 387.154 875.765 386.62H875.225C875.279 387.508 875.921 387.982 876.725 388.072V388.51H877.085V388.084C877.991 388.048 878.423 387.544 878.423 386.938ZM875.945 384.874C875.945 384.532 876.245 384.304 876.725 384.286V385.546C876.287 385.408 875.945 385.264 875.945 384.874ZM877.085 387.604V386.188C877.655 386.368 877.883 386.53 877.883 386.938C877.883 387.304 877.643 387.574 877.085 387.604ZM880.842 383.71H880.362L878.7 388H879.18L880.842 383.71ZM882.187 387.664C881.521 387.664 881.191 387.148 881.191 386.596H883.609C883.609 385.51 883.141 384.856 882.181 384.856C881.287 384.856 880.711 385.45 880.711 386.47C880.711 387.43 881.275 388.084 882.205 388.084C882.967 388.084 883.405 387.628 883.561 387.058H883.081C883.027 387.268 882.799 387.664 882.187 387.664ZM882.181 385.276C882.757 385.276 883.129 385.684 883.129 386.176H881.191C881.191 385.684 881.605 385.276 882.181 385.276ZM887.282 384.856C886.82 384.856 886.502 385.096 886.292 385.384H886.28C886.154 385.042 885.902 384.856 885.464 384.856C885.002 384.856 884.738 385.09 884.576 385.306H884.564V384.94H884.084V388H884.564V386.092C884.564 385.618 884.864 385.276 885.344 385.276C885.824 385.276 885.902 385.588 885.902 385.984V388H886.382V386.092C886.382 385.618 886.682 385.276 887.162 385.276C887.642 385.276 887.72 385.588 887.72 385.984V388H888.2V385.864C888.2 385.222 887.9 384.856 887.282 384.856ZM890.306 384.856C889.802 384.856 889.514 385.084 889.334 385.318H889.322V384.94H888.842V389.032H889.322V387.604H889.334C889.514 387.868 889.802 388.084 890.306 388.084C891.062 388.084 891.674 387.478 891.674 386.47C891.674 385.462 891.062 384.856 890.306 384.856ZM890.246 387.664C889.676 387.664 889.322 387.19 889.322 386.47C889.322 385.75 889.676 385.276 890.246 385.276C890.876 385.276 891.194 385.87 891.194 386.47C891.194 387.07 890.876 387.664 890.246 387.664ZM892.194 383.71V388H892.674V383.71H892.194ZM894.679 388.084C893.743 388.084 893.179 387.424 893.179 386.47C893.179 385.516 893.743 384.856 894.679 384.856C895.609 384.856 896.173 385.516 896.173 386.47C896.173 387.424 895.609 388.084 894.679 388.084ZM894.679 387.664C895.363 387.664 895.693 387.124 895.693 386.47C895.693 385.816 895.363 385.276 894.679 385.276C893.989 385.276 893.659 385.816 893.659 386.47C893.659 387.124 893.989 387.664 894.679 387.664ZM899.192 384.94H898.652L897.77 387.436H897.758L896.822 384.94H896.282L897.44 387.748C897.56 388.048 897.434 388.306 897.308 388.444C897.146 388.618 896.96 388.636 896.696 388.612H896.624V388.972C896.702 388.996 896.84 389.032 897.032 389.032C897.596 389.032 897.752 388.582 897.884 388.252L899.192 384.94ZM900.778 387.664C900.112 387.664 899.782 387.148 899.782 386.596H902.2C902.2 385.51 901.732 384.856 900.772 384.856C899.878 384.856 899.302 385.45 899.302 386.47C899.302 387.43 899.866 388.084 900.796 388.084C901.558 388.084 901.996 387.628 902.152 387.058H901.672C901.618 387.268 901.39 387.664 900.778 387.664ZM900.772 385.276C901.348 385.276 901.72 385.684 901.72 386.176H899.782C899.782 385.684 900.196 385.276 900.772 385.276ZM903.978 387.664C903.312 387.664 902.982 387.148 902.982 386.596H905.4C905.4 385.51 904.932 384.856 903.972 384.856C903.078 384.856 902.502 385.45 902.502 386.47C902.502 387.43 903.066 388.084 903.996 388.084C904.758 388.084 905.196 387.628 905.352 387.058H904.872C904.818 387.268 904.59 387.664 903.978 387.664ZM903.972 385.276C904.548 385.276 904.92 385.684 904.92 386.176H902.982C902.982 385.684 903.396 385.276 903.972 385.276Z" fill="black" fill-opacity="0.25"/>
</svg>
