<svg id="Group_37" data-name="Group 37" xmlns="http://www.w3.org/2000/svg" width="37" height="37" viewBox="0 0 37 37">
  <path id="Tracé_1427" data-name="Tracé 1427" d="M18.5,0A18.5,18.5,0,1,0,37,18.5,18.521,18.521,0,0,0,18.5,0Zm0,35.391A16.891,16.891,0,1,1,35.391,18.5,16.91,16.91,0,0,1,18.5,35.391Z" fill="#bba686"/>
  <path id="Tracé_1428" data-name="Tracé 1428" d="M18.5,17.7A10.469,10.469,0,0,0,8.043,28.152a.8.8,0,0,0,1.609,0,8.848,8.848,0,0,1,17.7,0,.8.8,0,1,0,1.609,0A10.469,10.469,0,0,0,18.5,17.7Z" fill="#bba686"/>
  <path id="Tracé_1429" data-name="Tracé 1429" d="M18.5,4.826a5.63,5.63,0,1,0,5.631,5.63A5.637,5.637,0,0,0,18.5,4.826Zm0,9.652a4.022,4.022,0,1,1,4.022-4.022A4.027,4.027,0,0,1,18.5,14.478Z" fill="#bba686"/>
</svg>
