<svg id="back-in-time_1" data-name="back-in-time 1" xmlns="http://www.w3.org/2000/svg" width="40" height="40" viewBox="0 0 40 40">
  <path id="Tracé_1430" data-name="Tracé 1430" d="M35.732,7.651h1.236a.781.781,0,0,0,0-1.561H34a.781.781,0,0,0-.781.781V9.837a.781.781,0,1,0,1.561,0V8.978A18.439,18.439,0,1,1,20,1.561a18.718,18.718,0,0,1,2.25.136.781.781,0,0,0,.188-1.55A20.283,20.283,0,0,0,20,0,20,20,0,0,0,5.858,34.142,20,20,0,0,0,35.732,7.651Z" fill="#bba686"/>
  <path id="Tracé_1431" data-name="Tracé 1431" d="M8.469,11.79a.781.781,0,0,0-1.077.242,14.908,14.908,0,1,0,4.666-4.657A.781.781,0,0,0,12.891,8.7,13.352,13.352,0,1,1,10.56,29.44,13.437,13.437,0,0,1,8.711,12.868.781.781,0,0,0,8.469,11.79Z" fill="#bba686"/>
  <path id="Tracé_1432" data-name="Tracé 1432" d="M30.15,20.793h.963a.781.781,0,0,0,0-1.562H30.15a.781.781,0,1,0,0,1.562Z" fill="#bba686"/>
  <path id="Tracé_1433" data-name="Tracé 1433" d="M8.106,19.987a.781.781,0,0,0,.781.781H9.85a.781.781,0,0,0,0-1.562H8.887A.781.781,0,0,0,8.106,19.987Z" fill="#bba686"/>
  <path id="Tracé_1434" data-name="Tracé 1434" d="M20.793,9.85V8.888a.781.781,0,0,0-1.562,0V9.85a.781.781,0,0,0,1.562,0Z" fill="#bba686"/>
  <path id="Tracé_1435" data-name="Tracé 1435" d="M19.206,30.15v.963a.781.781,0,1,0,1.561,0V30.15a.781.781,0,0,0-1.561,0Z" fill="#bba686"/>
  <path id="Tracé_1436" data-name="Tracé 1436" d="M16.087,14.982a.781.781,0,1,0-1.1,1.1l2.646,2.646a2.69,2.69,0,1,0,4.743,0l5.339-5.339a.781.781,0,1,0-1.1-1.1l-5.339,5.339a2.684,2.684,0,0,0-2.535,0ZM21.128,20A1.128,1.128,0,1,1,20,18.872,1.129,1.129,0,0,1,21.128,20Z" fill="#bba686"/>
  <path id="Tracé_1437" data-name="Tracé 1437" d="M10.559,10.559a.78.78,0,1,0-.552.229A.784.784,0,0,0,10.559,10.559Z" fill="#bba686"/>
  <path id="Tracé_1438" data-name="Tracé 1438" d="M25.409,2.333a.781.781,0,1,0-.552-.229A.784.784,0,0,0,25.409,2.333Z" fill="#bba686"/>
</svg>
