<svg width="50" height="49" viewBox="0 0 50 49" fill="none" xmlns="http://www.w3.org/2000/svg">
<path d="M19.7267 31.289C19.5378 31.289 19.3476 31.2257 19.1924 31.0968L13.8508 26.6621C13.6665 26.5089 13.5605 26.2853 13.5605 26.049C13.5605 25.8132 13.667 25.5896 13.8508 25.4364L19.1924 21.0017C19.5392 20.7134 20.0602 20.7543 20.3559 21.0925C20.6512 21.4311 20.6098 21.9391 20.2624 22.227L15.6592 26.049L20.2624 29.8711C20.6098 30.1594 20.6512 30.6674 20.3559 31.0056C20.1924 31.1929 19.9603 31.289 19.7267 31.289Z" fill="#AB987B"/>
<path d="M30.2731 31.289C30.0396 31.289 29.8074 31.1929 29.6444 31.0056C29.3486 30.6674 29.3906 30.1594 29.7374 29.8711L34.3406 26.049L29.7374 22.227C29.3906 21.9391 29.3486 21.4311 29.6444 21.0925C29.9396 20.7543 30.4611 20.7134 30.8075 21.0017L36.1491 25.4364C36.3334 25.5896 36.4393 25.8132 36.4393 26.049C36.4393 26.2853 36.3334 26.5089 36.1491 26.6621L30.8075 31.0968C30.6523 31.2257 30.462 31.289 30.2731 31.289Z" fill="#AB987B"/>
<path d="M23.11 34.6152C23.0533 34.6152 22.9962 34.6093 22.9386 34.5976C22.4927 34.506 22.2071 34.0789 22.3011 33.6441L25.6302 18.2333C25.7241 17.7985 26.1617 17.5201 26.6081 17.6117C27.054 17.7033 27.3396 18.13 27.2456 18.5652L23.9166 33.9761C23.8346 34.3551 23.4919 34.6152 23.11 34.6152Z" fill="#AB987B"/>
<path d="M44.4575 43.0111H5.54245C2.48655 43.0111 0 40.5871 0 37.6072V5.40389C0 2.42439 2.48655 0 5.54245 0H44.4575C47.5135 0 50 2.42439 50 5.40389V37.6072C50 40.5871 47.5135 43.0111 44.4575 43.0111ZM5.54245 1.60967C3.39678 1.60967 1.65094 3.31186 1.65094 5.40389V37.6072C1.65094 39.6992 3.39678 41.4014 5.54245 41.4014H44.4575C46.6032 41.4014 48.3491 39.6992 48.3491 37.6072V5.40389C48.3491 3.31186 46.6032 1.60967 44.4575 1.60967H5.54245Z" fill="#AB987B"/>
<path d="M49.1745 12.8877H0.825472C0.369435 12.8877 0 12.5275 0 12.0829C0 11.6387 0.369435 11.2781 0.825472 11.2781H49.1745C49.6306 11.2781 50 11.6387 50 12.0829C50 12.5275 49.6306 12.8877 49.1745 12.8877Z" fill="#AB987B"/>
<path d="M14.1045 9.03638C12.6645 9.03638 11.4922 7.89335 11.4922 6.48938C11.4922 5.08496 12.6645 3.94238 14.1045 3.94238C15.5449 3.94238 16.7168 5.08496 16.7168 6.48938C16.7168 7.89335 15.5449 9.03638 14.1045 9.03638ZM14.1045 5.55205C13.5748 5.55205 13.1431 5.97243 13.1431 6.48938C13.1431 7.00632 13.5748 7.42671 14.1045 7.42671C14.6347 7.42671 15.0659 7.00632 15.0659 6.48938C15.0659 5.97243 14.6347 5.55205 14.1045 5.55205Z" fill="#AB987B"/>
<path d="M6.07715 9.01172C4.63672 9.01172 3.46484 7.86914 3.46484 6.46472C3.46484 5.0603 4.63672 3.91772 6.07715 3.91772C7.51758 3.91772 8.68945 5.0603 8.68945 6.46472C8.68945 7.86914 7.51758 9.01172 6.07715 9.01172ZM6.07715 5.52739C5.54741 5.52739 5.11579 5.94823 5.11579 6.46472C5.11579 6.98167 5.54741 7.40205 6.07715 7.40205C6.60735 7.40205 7.03851 6.98167 7.03851 6.46472C7.03851 5.94823 6.60735 5.52739 6.07715 5.52739Z" fill="#AB987B"/>
<path d="M22.1294 9.06059C20.6895 9.06059 19.5176 7.91801 19.5176 6.51359C19.5176 5.10962 20.6895 3.96704 22.1294 3.96704C23.5699 3.96704 24.7417 5.10962 24.7417 6.51359C24.7417 7.91801 23.5699 9.06059 22.1294 9.06059ZM22.1294 5.57626C21.5997 5.57626 21.1685 5.99664 21.1685 6.51359C21.1685 7.03053 21.5997 7.45092 22.1294 7.45092C22.6596 7.45092 23.0908 7.03053 23.0908 6.51359C23.0908 5.99664 22.6596 5.57626 22.1294 5.57626Z" fill="#AB987B"/>
</svg>
