<svg width="50" height="50" viewBox="0 0 50 50" fill="none" xmlns="http://www.w3.org/2000/svg">
<path d="M11.7188 25.7812H14.0625V27.3438H11.7188V25.7812Z" fill="#AB987B"/>
<path d="M17.1875 29.6875H19.5312V31.25H17.1875V29.6875Z" fill="#AB987B"/>
<path d="M11.7188 29.6875H15.625V31.25H11.7188V29.6875Z" fill="#AB987B"/>
<path d="M5.46875 29.6875H10.1562V31.25H5.46875V29.6875Z" fill="#AB987B"/>
<path d="M10.1562 33.5938H19.5312V35.1562H10.1562V33.5938Z" fill="#AB987B"/>
<path d="M5.46875 33.5938H8.59375V35.1562H5.46875V33.5938Z" fill="#AB987B"/>
<path d="M14.8438 37.5H19.5312V39.0625H14.8438V37.5Z" fill="#AB987B"/>
<path d="M5.46875 37.5H13.2812V39.0625H5.46875V37.5Z" fill="#AB987B"/>
<path d="M10.1562 41.4062H14.8438V42.9688H10.1562V41.4062Z" fill="#AB987B"/>
<path d="M5.46875 41.4062H8.59375V42.9688H5.46875V41.4062Z" fill="#AB987B"/>
<path d="M46.875 23.4375C46.875 23.2303 46.7927 23.0316 46.6462 22.8851C46.4997 22.7386 46.301 22.6563 46.0938 22.6563H41.4063C41.1991 22.6563 41.0003 22.7386 40.8538 22.8851C40.7073 23.0316 40.625 23.2303 40.625 23.4375V27.3438H36.7188C36.5116 27.3438 36.3128 27.4261 36.1663 27.5726C36.0198 27.7191 35.9375 27.9178 35.9375 28.125V32.0313H32.0313C31.8241 32.0313 31.6253 32.1136 31.4788 32.2601C31.3323 32.4066 31.25 32.6053 31.25 32.8125V36.7188H27.3438C27.1366 36.7188 26.9378 36.8011 26.7913 36.9476C26.6448 37.0941 26.5625 37.2928 26.5625 37.5V42.1875H20.9594C20.7751 41.6663 20.4124 41.2269 19.9356 40.9472C19.4587 40.6674 18.8982 40.5653 18.3533 40.6588C17.8084 40.7523 17.3141 41.0354 16.9577 41.4581C16.6014 41.8808 16.4059 42.4159 16.4059 42.9688C16.4059 43.5216 16.6014 44.0567 16.9577 44.4794C17.3141 44.9021 17.8084 45.1853 18.3533 45.2788C18.8982 45.3723 19.4587 45.2701 19.9356 44.9903C20.4124 44.7106 20.7751 44.2713 20.9594 43.75H21.875V46.0938C21.8748 46.3009 21.7924 46.4995 21.6459 46.6459C21.4995 46.7924 21.3009 46.8748 21.0938 46.875H3.90626C3.69913 46.8748 3.50055 46.7924 3.35409 46.6459C3.20763 46.4995 3.12525 46.3009 3.12501 46.0938V28.125H7.03126C7.65264 28.1243 8.24837 27.8771 8.68776 27.4378C9.12714 26.9984 9.3743 26.4026 9.37501 25.7813V21.875H21.0938C21.3009 21.8752 21.4995 21.9576 21.6459 22.1041C21.7924 22.2506 21.8748 22.4491 21.875 22.6563V23.4375H23.4375V22.6563C23.4368 22.0349 23.1896 21.4391 22.7503 20.9998C22.3109 20.5604 21.7151 20.3132 21.0938 20.3125H9.24092C8.93301 20.3117 8.62799 20.3719 8.34351 20.4898C8.05904 20.6076 7.80076 20.7807 7.58363 20.999L2.24896 26.3337C2.03064 26.5508 1.85756 26.8091 1.73973 27.0936C1.6219 27.378 1.56166 27.6831 1.56251 27.991V46.0938C1.56322 46.7151 1.81038 47.3109 2.24976 47.7503C2.68915 48.1896 3.28488 48.4368 3.90626 48.4375H21.0938C21.7151 48.4368 22.3109 48.1896 22.7503 47.7503C23.1896 47.3109 23.4368 46.7151 23.4375 46.0938V43.75H48.4375V42.1875H46.875V23.4375ZM7.81251 22.9799V25.7813C7.81227 25.9884 7.72989 26.187 7.58342 26.3334C7.43696 26.4799 7.23839 26.5623 7.03126 26.5625H4.22989L7.81251 22.9799ZM18.75 43.75C18.5955 43.75 18.4444 43.7042 18.316 43.6183C18.1875 43.5325 18.0874 43.4105 18.0282 43.2677C17.9691 43.125 17.9536 42.9679 17.9838 42.8163C18.0139 42.6648 18.0883 42.5256 18.1976 42.4163C18.3068 42.3071 18.446 42.2327 18.5976 42.2025C18.7491 42.1724 18.9062 42.1879 19.049 42.247C19.1917 42.3061 19.3138 42.4062 19.3996 42.5347C19.4854 42.6632 19.5313 42.8142 19.5313 42.9688C19.531 43.1759 19.4486 43.3745 19.3022 43.5209C19.1557 43.6674 18.9571 43.7498 18.75 43.75ZM28.125 38.2813H31.25V42.1875H28.125V38.2813ZM32.8125 33.5938H35.9375V42.1875H32.8125V33.5938ZM37.5 28.9063H40.625V42.1875H37.5V28.9063ZM42.1875 42.1875V24.2188H45.3125V42.1875H42.1875Z" fill="#AB987B"/>
<path d="M3.90625 21.0938C4.30217 21.0939 4.69166 20.9937 5.03836 20.8025C5.38506 20.6113 5.67765 20.3354 5.88884 20.0005C6.10002 19.6656 6.2229 19.2826 6.24601 18.8874C6.26911 18.4921 6.19169 18.0975 6.02098 17.7402L8.36515 15.396C8.66165 15.5378 8.98464 15.6155 9.31315 15.6242C9.64166 15.633 9.96833 15.5725 10.2719 15.4467C10.5755 15.321 10.8493 15.1328 11.0754 14.8943C11.3015 14.6558 11.4749 14.3724 11.5844 14.0626H14.9781C15.1512 14.5524 15.4822 14.9707 15.9189 15.252C16.3557 15.5332 16.8735 15.6613 17.391 15.6162C17.9085 15.5711 18.3964 15.3553 18.7779 15.0028C19.1594 14.6502 19.4129 14.1809 19.4987 13.6686L23.9107 9.88684C24.4002 10.1438 24.9648 10.2194 25.5046 10.1004C26.0445 9.98141 26.525 9.67538 26.861 9.23642C27.1971 8.79747 27.3672 8.25384 27.3413 7.70161C27.3153 7.14937 27.095 6.62409 26.7193 6.21857C26.3435 5.81305 25.8365 5.5534 25.2879 5.48552C24.7392 5.41763 24.1842 5.54587 23.721 5.84758C23.2577 6.14928 22.916 6.60503 22.7562 7.13429C22.5965 7.66354 22.629 8.23223 22.8479 8.73987L19.1103 11.9435C18.8643 11.5894 18.5254 11.3101 18.1308 11.1363C17.7363 10.9625 17.3014 10.901 16.8741 10.9585C16.4468 11.0161 16.0437 11.1905 15.7091 11.4625C15.3746 11.7345 15.1217 12.0935 14.9781 12.5001H11.5844C11.4783 12.2 11.3123 11.9247 11.0965 11.6909C10.8806 11.4571 10.6193 11.2697 10.3287 11.1402C10.038 11.0107 9.72403 10.9417 9.40583 10.9375C9.08764 10.9332 8.77192 10.9939 8.47792 11.1156C8.18392 11.2374 7.91781 11.4178 7.6958 11.6458C7.47379 11.8738 7.30053 12.1446 7.1866 12.4417C7.07267 12.7388 7.02044 13.056 7.03311 13.374C7.04578 13.692 7.12307 14.004 7.26027 14.2912L4.9161 16.6354C4.59867 16.4838 4.25119 16.4056 3.89942 16.4066C3.54766 16.4076 3.20063 16.4878 2.88408 16.6412C2.56752 16.7946 2.28956 17.0173 2.0708 17.2927C1.85205 17.5682 1.69811 17.8894 1.6204 18.2325C1.54269 18.5756 1.54321 18.9317 1.62192 19.2746C1.70062 19.6174 1.8555 19.9382 2.07506 20.213C2.29461 20.4878 2.57322 20.7097 2.89022 20.8622C3.20722 21.0147 3.55448 21.0938 3.90625 21.0938ZM25 7.03132C25.1545 7.03132 25.3056 7.07714 25.434 7.16299C25.5625 7.24883 25.6627 7.37085 25.7218 7.5136C25.7809 7.65636 25.7964 7.81344 25.7662 7.96499C25.7361 8.11654 25.6617 8.25574 25.5524 8.365C25.4432 8.47426 25.304 8.54867 25.1524 8.57881C25.0009 8.60896 24.8438 8.59349 24.701 8.53436C24.5583 8.47522 24.4363 8.37509 24.3504 8.24661C24.2646 8.11814 24.2188 7.96709 24.2188 7.81257C24.219 7.60545 24.3014 7.40687 24.4478 7.26041C24.5943 7.11395 24.7929 7.03156 25 7.03132ZM17.1875 12.5001C17.342 12.5001 17.4931 12.5459 17.6215 12.6317C17.75 12.7176 17.8502 12.8396 17.9093 12.9824C17.9684 13.1251 17.9839 13.2822 17.9537 13.4337C17.9236 13.5853 17.8492 13.7245 17.7399 13.8338C17.6307 13.943 17.4915 14.0174 17.3399 14.0476C17.1884 14.0777 17.0313 14.0622 16.8885 14.0031C16.7458 13.944 16.6238 13.8438 16.5379 13.7154C16.4521 13.5869 16.4063 13.4358 16.4063 13.2813C16.4065 13.0742 16.4889 12.8756 16.6353 12.7292C16.7818 12.5827 16.9804 12.5003 17.1875 12.5001ZM9.375 12.5001C9.52952 12.5001 9.68056 12.5459 9.80904 12.6317C9.93752 12.7176 10.0377 12.8396 10.0968 12.9824C10.1559 13.1251 10.1714 13.2822 10.1412 13.4337C10.1111 13.5853 10.0367 13.7245 9.92743 13.8338C9.81817 13.943 9.67896 14.0174 9.52741 14.0476C9.37587 14.0777 9.21878 14.0622 9.07603 14.0031C8.93327 13.944 8.81126 13.8438 8.72541 13.7154C8.63957 13.5869 8.59375 13.4358 8.59375 13.2813C8.59399 13.0742 8.67637 12.8756 8.82283 12.7292C8.9693 12.5827 9.16787 12.5003 9.375 12.5001ZM3.90625 17.9688C4.06077 17.9688 4.21181 18.0146 4.34029 18.1005C4.46876 18.1863 4.5689 18.3083 4.62803 18.4511C4.68716 18.5939 4.70263 18.7509 4.67249 18.9025C4.64234 19.054 4.56794 19.1932 4.45868 19.3025C4.34942 19.4118 4.21021 19.4862 4.05866 19.5163C3.90712 19.5465 3.75003 19.531 3.60728 19.4719C3.46452 19.4127 3.34251 19.3126 3.25666 19.1841C3.17082 19.0556 3.125 18.9046 3.125 18.7501C3.12524 18.5429 3.20762 18.3444 3.35408 18.1979C3.50055 18.0514 3.69912 17.9691 3.90625 17.9688Z" fill="#AB987B"/>
<path d="M32.1845 19.836L27.0205 25H20.1785C19.9942 24.4787 19.6315 24.0394 19.1546 23.7597C18.6778 23.4799 18.1173 23.3777 17.5724 23.4712C17.0275 23.5647 16.5332 23.8479 16.1768 24.2706C15.8205 24.6933 15.625 25.2284 15.625 25.7812C15.625 26.3341 15.8205 26.8692 16.1768 27.2919C16.5332 27.7146 17.0275 27.9977 17.5724 28.0912C18.1173 28.1847 18.6778 28.0826 19.1546 27.8028C19.6315 27.5231 19.9942 27.0837 20.1785 26.5625H21.8754V40.625H23.4379V26.5625H27.3441C27.5513 26.5625 27.75 26.4802 27.8966 26.3337L33.535 20.6952C35.8595 21.9289 38.5714 22.2149 41.1021 21.4932C43.6329 20.7716 45.786 19.0982 47.1102 16.824C48.4344 14.5498 48.8268 11.8513 48.2052 9.29415C47.5836 6.73699 45.9962 4.51973 43.7758 3.10714C41.5555 1.69456 38.8745 1.19633 36.2948 1.71689C33.7152 2.23745 31.4372 3.73639 29.9384 5.8995C28.4396 8.0626 27.8364 10.7219 28.2551 13.32C28.6738 15.9181 30.082 18.2533 32.1845 19.836L32.1845 19.836ZM17.9691 26.5625C17.8146 26.5625 17.6635 26.5167 17.5351 26.4308C17.4066 26.345 17.3065 26.223 17.2473 26.0802C17.1882 25.9375 17.1727 25.7804 17.2029 25.6288C17.233 25.4773 17.3074 25.3381 17.4167 25.2288C17.5259 25.1196 17.6651 25.0451 17.8167 25.015C17.9682 24.9849 18.1253 25.0003 18.2681 25.0595C18.4108 25.1186 18.5328 25.2187 18.6187 25.3472C18.7045 25.4757 18.7504 25.6267 18.7504 25.7812C18.7501 25.9884 18.6677 26.1869 18.5213 26.3334C18.3748 26.4799 18.1762 26.5623 17.9691 26.5625ZM44.5482 17.5927L40.0213 12.5H46.8395C46.6661 14.4059 45.8595 16.1988 44.5482 17.5927ZM46.8395 10.9375H39.0629V3.16088C41.0627 3.34625 42.9348 4.22512 44.355 5.64531C45.7752 7.06551 46.6541 8.93761 46.8395 10.9375ZM37.5004 3.16088V11.7187C37.5003 11.91 37.5708 12.0946 37.6983 12.2372L37.6977 12.2378L43.381 18.6315C42.3143 19.4185 41.08 19.948 39.7746 20.1786C38.4692 20.4092 37.1281 20.3346 35.8563 19.9607C34.5846 19.5868 33.4166 18.9237 32.4437 18.0233C31.4708 17.1228 30.7195 16.0095 30.2485 14.7704C29.7775 13.5313 29.5996 12.2 29.7287 10.8807C29.8578 9.56141 30.2904 8.28988 30.9927 7.16559C31.695 6.0413 32.6479 5.09475 33.7769 4.4C34.9058 3.70526 36.1802 3.28115 37.5004 3.16088Z" fill="#AB987B"/>
</svg>
