<svg width="50" height="50" viewBox="0 0 50 50" fill="none" xmlns="http://www.w3.org/2000/svg">
<path d="M42.1875 9.76562C41.6484 9.76562 41.2109 10.2031 41.2109 10.7422C41.2109 11.2812 41.6484 11.7188 42.1875 11.7188C42.7266 11.7188 43.1641 11.2812 43.1641 10.7422C43.1641 10.2031 42.7266 9.76562 42.1875 9.76562Z" fill="#AB987B"/>
<path d="M7.8125 9.76562C7.27344 9.76562 6.83594 10.2031 6.83594 10.7422C6.83594 11.2812 7.27344 11.7188 7.8125 11.7188C8.35156 11.7188 8.78906 11.2812 8.78906 10.7422C8.78906 10.2031 8.35156 9.76562 7.8125 9.76562Z" fill="#AB987B"/>
<path d="M49.0237 21.4843H47.8558C47.4907 18.6714 46.6087 15.9908 45.2245 13.5053C44.9621 13.0342 44.3675 12.8648 43.8962 13.1272C43.425 13.3896 43.2557 13.9843 43.5181 14.4555C44.7395 16.6491 45.5343 19.009 45.8864 21.4843H45.1175C44.5781 21.4843 44.1409 21.9215 44.1409 22.4609V26.3671C44.1409 26.9065 44.5781 27.3437 45.1175 27.3437H49.0237C49.5631 27.3437 50.0003 26.9065 50.0003 26.3671V22.4609C50.0003 21.9215 49.5631 21.4843 49.0237 21.4843ZM48.0472 25.3905H46.094V23.4374H46.9806C46.9809 23.4374 46.9813 23.4374 46.9815 23.4374C46.9819 23.4374 46.9822 23.4374 46.9826 23.4374H48.0472V25.3905Z" fill="#AB987B"/>
<path d="M35.7403 28.5763C35.7397 28.5611 35.7394 28.546 35.7381 28.5309C35.7363 28.5102 35.7335 28.4897 35.7305 28.4694C35.7286 28.4569 35.7272 28.4444 35.7247 28.4319C35.7202 28.408 35.7144 28.3846 35.7082 28.3612C35.7059 28.3523 35.704 28.3435 35.7014 28.3347C35.6927 28.3055 35.6825 28.2769 35.6712 28.2488C35.6699 28.2458 35.669 28.2426 35.6678 28.2396C35.6543 28.2069 35.6392 28.1752 35.6224 28.1445L25.8569 10.2738C25.6857 9.96055 25.3571 9.76562 25 9.76562C24.6429 9.76562 24.3143 9.96055 24.1431 10.2739L14.3776 28.1446C14.3608 28.1753 14.3457 28.207 14.3322 28.2396C14.331 28.2427 14.3301 28.2458 14.3288 28.2489C14.3175 28.277 14.3073 28.3056 14.2986 28.3348C14.296 28.3436 14.2941 28.3524 14.2918 28.3613C14.2855 28.3847 14.2798 28.408 14.2753 28.432C14.2729 28.4444 14.2715 28.4569 14.2695 28.4695C14.2665 28.4898 14.2637 28.5103 14.2619 28.531C14.2606 28.5461 14.2602 28.5612 14.2597 28.5764C14.2592 28.5887 14.2578 28.6008 14.2578 28.6133C14.2578 28.6197 14.2587 28.6259 14.2588 28.6323C14.2591 28.6477 14.2601 28.6629 14.2611 28.6782C14.2624 28.6977 14.264 28.717 14.2664 28.7361C14.2682 28.7496 14.2703 28.763 14.2726 28.7765C14.2761 28.7976 14.2803 28.8185 14.2852 28.8391C14.2879 28.8507 14.2909 28.8623 14.2941 28.8738C14.3003 28.8961 14.3073 28.918 14.3149 28.9396C14.3171 28.9457 14.3185 28.952 14.3208 28.9581L17.8427 38.291C17.5602 38.4311 17.2988 38.6171 17.0692 38.8466C16.5157 39.4001 16.2109 40.1357 16.2109 40.918C16.2109 42.191 17.0274 43.2766 18.1641 43.6797V49.0234C18.1641 49.5628 18.6013 50 19.1406 50H30.8594C31.3987 50 31.8359 49.5628 31.8359 49.0234V43.6813C32.2431 43.5377 32.6164 43.3038 32.9309 42.9894C33.4843 42.4358 33.7891 41.7002 33.7891 40.918C33.7891 39.7683 33.1231 38.7717 32.1569 38.2923L35.6793 28.9581C35.6816 28.952 35.683 28.9457 35.6852 28.9396C35.6928 28.918 35.6998 28.8961 35.706 28.8738C35.7092 28.8623 35.7121 28.8507 35.7149 28.8391C35.7198 28.8185 35.7239 28.7976 35.7275 28.7765C35.7298 28.763 35.732 28.7496 35.7337 28.7361C35.7361 28.717 35.7377 28.6977 35.739 28.6782C35.7399 28.6629 35.741 28.6477 35.7413 28.6323C35.7414 28.626 35.7423 28.6197 35.7423 28.6133C35.7422 28.6008 35.7408 28.5887 35.7403 28.5763ZM25 27.6367C25.5385 27.6367 25.9766 28.0748 25.9766 28.6133C25.9766 29.1518 25.5385 29.5898 25 29.5898C24.4615 29.5898 24.0234 29.1518 24.0234 28.6133C24.0234 28.0748 24.4615 27.6367 25 27.6367ZM29.8828 48.0469H20.1172V43.8477H29.8828V48.0469ZM31.5497 41.6082C31.3651 41.7929 31.1199 41.8945 30.8594 41.8945H19.1406C18.6021 41.8945 18.1641 41.4564 18.1641 40.918C18.1641 40.6574 18.2657 40.4122 18.4503 40.2277C18.635 40.0431 18.8801 39.9414 19.1406 39.9414H30.8528C30.855 39.9414 30.8571 39.9417 30.8593 39.9417C30.8604 39.9417 30.8615 39.9416 30.8626 39.9416C31.3996 39.9434 31.836 40.3806 31.836 40.918C31.8359 41.1785 31.7343 41.4237 31.5497 41.6082ZM30.1841 37.9883H19.8159L16.6467 29.5898H19.1406C19.68 29.5898 20.1172 29.1526 20.1172 28.6133C20.1172 28.0739 19.68 27.6367 19.1406 27.6367H16.8809L24.0234 14.5658V25.8516C22.8868 26.2547 22.0703 27.3401 22.0703 28.6133C22.0703 30.2287 23.3846 31.543 25 31.543C26.6154 31.543 27.9297 30.2287 27.9297 28.6133C27.9297 27.3402 27.1132 26.2547 25.9766 25.8516V14.5658L33.1191 27.6367H30.8594C30.32 27.6367 29.8828 28.0739 29.8828 28.6133C29.8828 29.1526 30.32 29.5898 30.8594 29.5898H33.3533L30.1841 37.9883Z" fill="#AB987B"/>
<path d="M6.104 13.1273C5.63271 12.8648 5.03799 13.0341 4.77568 13.5054C3.3916 15.9909 2.50947 18.6715 2.14453 21.4844H0.976562C0.437207 21.4844 0 21.9216 0 22.461V26.3672C0 26.9066 0.437207 27.3438 0.976562 27.3438H4.88281C5.42217 27.3438 5.85938 26.9066 5.85938 26.3672V22.461C5.85938 21.9216 5.42217 21.4844 4.88281 21.4844H4.11377C4.46602 19.0091 5.26064 16.6492 6.48213 14.4556C6.74453 13.9844 6.57529 13.3897 6.104 13.1273ZM3.90625 25.3906H1.95312V23.4375H3.01768C3.01807 23.4375 3.01836 23.4375 3.01875 23.4375C3.01904 23.4375 3.01943 23.4375 3.01973 23.4375H3.90625V25.3906Z" fill="#AB987B"/>
<path d="M47.0703 0C45.7973 0 44.7117 0.816504 44.3086 1.95312H27.9297V0.976562C27.9297 0.437207 27.4925 0 26.9531 0H23.0469C22.5075 0 22.0703 0.437207 22.0703 0.976562V1.95312H5.69141C5.28828 0.816504 4.20273 0 2.92969 0C1.31426 0 0 1.31426 0 2.92969C0 4.54512 1.31426 5.85938 2.92969 5.85938C4.20273 5.85938 5.28828 5.04287 5.69141 3.90625H15.5092C13.4263 4.77783 11.5161 5.90928 9.94385 7.23477C9.53144 7.58242 9.479 8.19854 9.82666 8.61084C10.0198 8.84004 10.2959 8.95801 10.5737 8.95801C10.796 8.95801 11.0194 8.88262 11.2026 8.72812C14.0046 6.36602 18.0032 4.679 22.0703 4.11318V4.88281C22.0703 5.42217 22.5075 5.85938 23.0469 5.85938H26.9531C27.4925 5.85938 27.9297 5.42217 27.9297 4.88281V4.11318C31.9968 4.679 35.9954 6.36602 38.7974 8.72803C38.9806 8.88252 39.204 8.95801 39.4263 8.95791C39.7042 8.95791 39.9803 8.83994 40.1733 8.61074C40.5211 8.19854 40.4686 7.58242 40.0562 7.23477C38.4839 5.90928 36.5737 4.77783 34.4908 3.90625H44.3086C44.7117 5.04287 45.7972 5.85938 47.0703 5.85938C48.6857 5.85938 50 4.54512 50 2.92969C50 1.31426 48.6857 0 47.0703 0ZM2.92969 3.90625C2.39121 3.90625 1.95312 3.46816 1.95312 2.92969C1.95312 2.39121 2.39121 1.95312 2.92969 1.95312C3.46816 1.95312 3.90625 2.39121 3.90625 2.92969C3.90625 3.46816 3.46816 3.90625 2.92969 3.90625ZM25.9766 2.92969V3.01758V3.90625H24.0234V3.01758V2.92969V1.95312H25.9766V2.92969ZM47.0703 3.90625C46.5318 3.90625 46.0938 3.46816 46.0938 2.92969C46.0938 2.39121 46.5318 1.95312 47.0703 1.95312C47.6088 1.95312 48.0469 2.39121 48.0469 2.92969C48.0469 3.46816 47.6088 3.90625 47.0703 3.90625Z" fill="#AB987B"/>
</svg>
